<?xml version="1.0" encoding="utf-8"?>
<!-- Generator: Adobe Illustrator 26.0.3, SVG Export Plug-In . SVG Version: 6.00 Build 0)  -->
<svg version="1.1" id="Layer_1" xmlns="http://www.w3.org/2000/svg" xmlns:xlink="http://www.w3.org/1999/xlink" x="0px" y="0px"
	 viewBox="0 0 122.9 106.7" style="enable-background:new 0 0 122.9 106.7;" xml:space="preserve">
<style type="text/css">
	.st0{fill-rule:evenodd;clip-rule:evenodd;fill:#FFFFFF;}
</style>
<path class="st0" d="M40.5,53.3c14.3-3.4,29.1-3.4,43.4,0c1.3,0.2,2.5,0.9,3.3,2c0.3,0.3,0.5,0.6,0.8,1L97.8,70l6-16.5
	c0.3-1.3,1.2-2.5,2.3-3.2l0,0l6.7-5c0.7-0.5,1.7-0.4,2.3,0.3l0,0c0.5,0.7,0.4,1.7-0.3,2.3c0,0,0,0,0,0l-3.9,2.9
	c0.3,0.1,0.7,0.3,1.1,0.5l4.3-2.8c0.6-0.4,1.4-0.2,1.7,0.4l0,0c0.4,0.6,0.2,1.4-0.4,1.7l-2.2,1.4h5.6c1,0,1.8,0.8,1.8,1.8l0,0
	c0,1-0.8,1.8-1.8,1.8h-4.9c-0.2,0.7-0.5,1.4-0.8,2L105,87.7l0,0c-1.1,3.2-4.6,4.9-7.8,3.7c-1.4-0.5-2.5-1.4-3.3-2.7l-9.4-14.4
	c-1.4,9.1-2.7,23.9-5,32.3H44.9c-2.4-8.8-3.7-24.1-5.2-33.6L29.5,88.8c-1.7,2.9-5.5,3.9-8.4,2.2c-1.2-0.7-2.2-1.9-2.7-3.3l0,0
	L8,57.6c-0.3-0.6-0.6-1.3-0.8-2H2.3c-1,0-1.8-0.8-1.8-1.8c0,0,0,0,0,0l0,0c0-1,0.8-1.8,1.8-1.8h5.6l-2.2-1.4
	c-0.6-0.4-0.7-1.2-0.4-1.7l0,0c0.4-0.6,1.2-0.7,1.7-0.4l4.3,2.8c0.4-0.2,0.7-0.3,1.1-0.5l-3.9-2.9c-0.7-0.5-0.9-1.6-0.3-2.3
	c0,0,0,0,0,0l0,0c0.5-0.7,1.5-0.9,2.3-0.3c0,0,0,0,0,0l6.7,5l0,0c1.2,0.7,2,1.9,2.4,3.2l6,16.5l9.9-13.8c1.1-1.7,3-2.8,5-3
	L40.5,53.3L40.5,53.3z M13.5,19.2v-0.4c0-0.7,0.1-1.5,0.2-2.2c0.1-0.5,0.3-0.9,0.6-1.3c0.3-0.3,0.6-0.6,1-0.9c0.4-0.2,0.7-0.4,1-0.7
	c0.3-0.2,0.5-0.4,0.7-0.7c0.2-0.2,0.3-0.5,0.2-0.8c0-0.3-0.1-0.5-0.2-0.7c-0.1-0.2-0.3-0.4-0.5-0.5c-0.2-0.1-0.5-0.2-0.8-0.2
	c-0.3,0-0.6,0.1-0.8,0.2c-0.3,0.1-0.5,0.3-0.6,0.6c-0.2,0.3-0.2,0.6-0.2,0.9H9.9c0-1.1,0.2-2.1,0.8-3c0.6-0.7,1.3-1.3,2.2-1.6
	c0.9-0.4,1.9-0.6,2.9-0.5c1.1,0,2.2,0.2,3.2,0.5c0.9,0.3,1.6,0.8,2.2,1.6C21.8,10.1,22,11,22,12c0,1.2-0.4,2.3-1.3,3.1
	c-0.4,0.4-0.9,0.7-1.4,1c-0.4,0.2-0.7,0.4-1,0.7c-0.3,0.2-0.5,0.5-0.6,0.8c-0.1,0.4-0.2,0.8-0.2,1.1v0.4L13.5,19.2z M15.5,24.8
	c-0.6,0-1.2-0.2-1.6-0.7c-0.5-0.4-0.7-1-0.7-1.6c0-0.6,0.2-1.2,0.7-1.6c0.4-0.4,1-0.7,1.6-0.7c1.3,0,2.3,0.9,2.3,2.2
	c0,0.4-0.1,0.9-0.3,1.3c-0.2,0.3-0.5,0.6-0.9,0.8C16.3,24.7,15.9,24.8,15.5,24.8L15.5,24.8z M5.9,0h20.9c1.4,0,2.7,0.5,3.6,1.5
	l0.1,0.1c0.4,0.5,0.8,1,1,1.6c0.3,0.6,0.4,1.3,0.4,2v24.3c0,0.7-0.1,1.3-0.4,2c-0.3,0.6-0.6,1.2-1.1,1.6l0,0c-1,1-2.3,1.5-3.6,1.5
	h-1.2l-0.4,4.6c-0.1,0.9-0.8,1.5-1.7,1.4c-0.4,0-0.7-0.2-0.9-0.4l-6.9-5.6H5.1c-1.4,0-2.7-0.6-3.6-1.5l-0.1-0.1
	c-0.4-0.5-0.8-1-1-1.6C0.2,30.7,0,30.1,0,29.4V5.1c0-0.7,0.1-1.3,0.4-2C0.7,2.5,1,2,1.5,1.5l0,0c1-1,2.3-1.5,3.6-1.5H5.9z M26.8,3.1
	H5.1c-0.3,0-0.5,0-0.8,0.2C4.1,3.4,3.9,3.5,3.7,3.7l0,0C3.5,3.9,3.4,4.1,3.3,4.3C3.2,4.6,3.1,4.8,3.1,5.1v24.3c0,0.3,0,0.5,0.2,0.8
	c0.1,0.2,0.2,0.4,0.4,0.6l0.1,0.1c0.2,0.2,0.4,0.3,0.6,0.5c0.2,0.1,0.5,0.1,0.8,0.1h10.7c0.3,0,0.6,0.1,0.9,0.2
	c0.3,0.1,0.5,0.3,0.8,0.5l4.8,3.9l0.2-2.1c0-0.6,0.2-1.2,0.6-1.6c0.4-0.5,1-0.8,1.6-0.8h0.2h1.9c0.3,0,0.5,0,0.8-0.1
	c0.2-0.1,0.5-0.3,0.6-0.5l0,0c0.2-0.2,0.3-0.4,0.4-0.6c0.1-0.2,0.1-0.5,0.1-0.8V5.1c0-0.3,0-0.5-0.1-0.8c-0.1-0.2-0.2-0.4-0.4-0.6
	l-0.1-0.1c-0.2-0.2-0.4-0.3-0.6-0.4C27.3,3.2,27.1,3.1,26.8,3.1z M102.7,26.5v-0.4c0-0.7,0.1-1.5,0.2-2.2c0.1-0.5,0.3-0.9,0.7-1.3
	c0.3-0.3,0.6-0.6,1-0.9c0.3-0.2,0.7-0.5,1-0.7c0.3-0.2,0.5-0.4,0.7-0.7c0.2-0.2,0.3-0.5,0.2-0.8c0-0.3-0.1-0.5-0.2-0.7
	c-0.1-0.2-0.3-0.4-0.5-0.5c-0.2-0.1-0.5-0.2-0.8-0.2c-0.3,0-0.6,0.1-0.8,0.2c-0.3,0.1-0.5,0.3-0.6,0.6c-0.2,0.3-0.2,0.6-0.2,0.9H99
	c0-1.1,0.2-2.1,0.8-3c0.5-0.8,1.3-1.3,2.2-1.7c1-0.4,2-0.5,3-0.5c1.1,0,2.2,0.2,3.2,0.5c0.9,0.3,1.6,0.8,2.2,1.6
	c0.6,0.8,0.8,1.7,0.8,2.6c0,0.6-0.1,1.2-0.3,1.8c-0.2,0.5-0.6,1-1,1.3c-0.4,0.4-0.9,0.8-1.4,1.1c-0.4,0.2-0.7,0.4-1,0.7
	c-0.3,0.2-0.5,0.5-0.6,0.8c-0.1,0.4-0.2,0.7-0.2,1.1v0.4L102.7,26.5z M104.7,32.1c-0.6,0-1.2-0.2-1.7-0.7c-0.5-0.4-0.7-1-0.7-1.6
	c0-0.6,0.2-1.2,0.7-1.6c0.9-0.9,2.4-0.9,3.3,0c0.5,0.4,0.7,1,0.7,1.6c0,0.4-0.1,0.8-0.3,1.2c-0.2,0.3-0.5,0.6-0.8,0.8
	C105.4,32,105.1,32.1,104.7,32.1z M115.1,10.8H94.2c-0.3,0-0.5,0-0.8,0.1c-0.2,0.1-0.5,0.3-0.7,0.4l-0.1,0.1
	c-0.2,0.2-0.3,0.4-0.4,0.6c-0.1,0.2-0.1,0.5-0.1,0.8v20.5c0,0.3,0,0.5,0.1,0.8c0.1,0.2,0.3,0.5,0.4,0.7l0,0c0.2,0.2,0.4,0.3,0.7,0.4
	c0.2,0.1,0.5,0.2,0.8,0.2h1.8h0.2c0.6,0.1,1.2,0.4,1.6,0.8c0.4,0.4,0.6,1,0.6,1.6l0.2,2.1l4.8-3.8c0.2-0.2,0.5-0.4,0.8-0.5
	c0.3-0.1,0.6-0.2,0.9-0.2h10.7c0.3,0,0.5,0,0.8-0.2c0.2-0.1,0.5-0.3,0.7-0.4l0.1-0.1c0.3-0.4,0.5-0.9,0.5-1.4V12.8
	c0-0.3-0.1-0.5-0.2-0.8c-0.1-0.2-0.3-0.5-0.4-0.6l0,0c-0.2-0.2-0.4-0.3-0.7-0.4c-0.2-0.1-0.5-0.2-0.8-0.1L115.1,10.8z M94.2,7.7
	h21.7c0.7,0,1.3,0.1,1.9,0.4c0.6,0.3,1.2,0.6,1.7,1.1l0,0c1,1,1.5,2.3,1.5,3.6v20.5c0,0.7-0.1,1.4-0.4,2c-0.2,0.6-0.6,1.1-1,1.5
	l-0.1,0.1c-0.5,0.5-1.1,0.8-1.7,1.1c-0.6,0.3-1.3,0.4-1.9,0.4h-10.5L98.5,44c-0.3,0.2-0.6,0.4-0.9,0.4c-0.8,0.1-1.6-0.5-1.7-1.4
	c0,0,0,0,0,0l-0.4-4.6h-1.2c-0.7,0-1.4-0.1-2-0.4c-0.6-0.3-1.2-0.6-1.7-1.1l0,0c-1-1-1.5-2.3-1.5-3.6V12.8c0-0.7,0.1-1.4,0.4-2
	c0.2-0.6,0.6-1.1,1-1.6l0.1-0.1c0.5-0.5,1-0.9,1.7-1.1C92.8,7.7,93.5,7.6,94.2,7.7L94.2,7.7z M61.3,6.6c11.1,0,20.1,9,20.1,20.1
	c0,11.1-9,20.1-20.1,20.1c-11.1,0-20.1-9-20.1-20.1c0,0,0,0,0,0C41.2,15.6,50.2,6.6,61.3,6.6z"/>
</svg>
