<?xml version="1.0" encoding="utf-8"?>
<!-- Generator: Adobe Illustrator 26.0.3, SVG Export Plug-In . SVG Version: 6.00 Build 0)  -->
<svg version="1.1" id="Layer_1" xmlns="http://www.w3.org/2000/svg" xmlns:xlink="http://www.w3.org/1999/xlink" x="0px" y="0px"
	 viewBox="0 0 122.9 92.7" style="enable-background:new 0 0 122.9 92.7;" xml:space="preserve">
<style type="text/css">
	.st0{fill-rule:evenodd;clip-rule:evenodd;fill:#FFFFFF;}
</style>
<g>
	<path class="st0" d="M0,39.4h24.8v44.2H0V39.4L0,39.4z M81.7,0c12.2,0,22.1,9.9,22.1,22.1c0,12.2-9.9,22.1-22.1,22.1
		c-12.2,0-22.1-9.9-22.1-22.1C59.6,9.9,69.5,0,81.7,0L81.7,0z M84.3,27.6c0-0.8-0.2-1.5-0.6-2c-0.4-0.5-1.1-0.9-2.2-1.3
		c-1-0.4-2-0.8-2.8-1.3c-0.9-0.4-1.6-0.9-2.2-1.5c-0.6-0.6-1.1-1.2-1.4-2c-0.3-0.7-0.5-1.6-0.5-2.7c0-1.8,0.6-3.2,1.8-4.4
		c1.2-1.1,2.8-1.8,4.8-2V8.1h2.5v2.4c1.9,0.3,3.4,1.1,4.5,2.4c1.1,1.3,1.7,2.9,1.7,4.9h-5.3c0-1.1-0.2-1.9-0.6-2.5
		c-0.4-0.6-1-0.9-1.8-0.9c-0.7,0-1.2,0.2-1.6,0.6c-0.4,0.4-0.6,1-0.6,1.8c0,0.8,0.2,1.4,0.7,1.8c0.4,0.5,1.2,0.9,2.1,1.3
		c1,0.4,1.9,0.8,2.8,1.3c0.9,0.5,1.6,1,2.2,1.5c0.6,0.6,1.1,1.2,1.5,2c0.4,0.8,0.5,1.7,0.5,2.7c0,1.8-0.6,3.2-1.7,4.4
		c-1.1,1.1-2.7,1.8-4.6,2v2.2h-2.5v-2.2c-2.3-0.2-4-1-5.2-2.4c-1.2-1.3-1.8-3.1-1.8-5.2H79c0,1.2,0.3,2.1,0.8,2.7
		c0.5,0.6,1.3,0.9,2.2,0.9c0.7,0,1.3-0.2,1.7-0.6C84.1,28.9,84.3,28.3,84.3,27.6L84.3,27.6L84.3,27.6z M29.8,79.8V42.9h16.6
		c7,1.3,14.1,5.1,21.1,9.5h12.9c5.8,0.3,8.9,6.3,3.2,10.2c-4.5,3.3-10.5,3.1-16.6,2.6c-4.2-0.2-4.4,5.5,0,5.5
		c1.5,0.1,3.2-0.2,4.6-0.2c7.6,0,13.9-1.5,17.8-7.5l1.9-4.5l19.2-9.5c9.6-3.2,16.4,6.9,9.3,13.9c-13.9,10.1-28.2,18.4-42.7,25.1
		c-10.6,6.4-21.2,6.2-31.8,0L29.8,79.8L29.8,79.8z"/>
</g>
</svg>
