<?xml version="1.0" encoding="utf-8"?>
<!-- Generator: Adobe Illustrator 26.0.3, SVG Export Plug-In . SVG Version: 6.00 Build 0)  -->
<svg version="1.1" id="Layer_1" xmlns="http://www.w3.org/2000/svg" xmlns:xlink="http://www.w3.org/1999/xlink" x="0px" y="0px"
	 viewBox="0 0 122.9 96.4" style="enable-background:new 0 0 122.9 96.4;" xml:space="preserve">
<style type="text/css">
	.st0{fill:#FFFFFF;}
</style>
<path class="st0" d="M12,73.5c0.1-23.2,0.3-46.3,0.4-69.4c0-1.5,1.1-2.8,2.6-3.1l0,0c8.4-1.8,21.6-1.3,30.6,2.1
	c6.3,2.3,11.9,6.3,16,11.6c4.3-5.1,9.8-8.9,16-11.1c8.5-3.2,21.4-4,30.6-2.6c1.6,0.2,2.8,1.6,2.8,3.1l0,0v69.7
	c0,1.8-1.4,3.2-3.2,3.2c0,0,0,0,0,0c-0.2,0-0.5,0-0.7-0.1c-7.9-1-15.9-0.3-23.4,2.2C78,81.2,72.7,84,67.8,87.4
	c6.9-2.1,14-3.2,21.2-3.1c9.2,0.1,18.4,1.3,27.4,3.5V14.8h3.2c1.8,0,3.2,1.4,3.2,3.2v73.9c0,1.8-1.4,3.2-3.2,3.2
	c-0.3,0-0.7-0.1-1-0.2C109,92.3,99,90.9,89,90.7c-8.9-0.1-17.6,1.7-25.8,5.3c-1.1,0.7-2.5,0.7-3.6,0c-8.1-3.6-16.9-5.4-25.8-5.3
	c-10,0.2-19.9,1.7-29.6,4.3c-0.3,0.1-0.7,0.2-1,0.2C1.5,95.2,0,93.8,0,92c0,0,0,0,0-0.1V18c0-1.8,1.4-3.2,3.2-3.2l0,0h3.2v72.9
	c9-2.2,18.2-3.3,27.4-3.5c7.7-0.1,15.4,1.1,22.7,3.6c-4.6-3.7-9.9-6.6-15.5-8.4c-7-2.3-17.7-3.1-25.5-2.4c-1.8,0.2-3.3-1.1-3.5-2.9
	c0,0,0,0,0,0C12,73.9,12,73.7,12,73.5z M73.6,64.4c-1,0.8-2.5,0.5-3.2-0.5s-0.5-2.5,0.5-3.2c0.1-0.1,0.2-0.1,0.2-0.2
	c3.7-2.3,7.7-4.1,11.8-5.4c4.2-1.4,8.6-2.3,13-2.7c1.3-0.1,2.3,0.9,2.4,2.2s-0.9,2.3-2.2,2.4l0,0c-4,0.3-8,1.2-11.8,2.5
	C80.6,60.7,77,62.3,73.6,64.4z M73.8,46.6c-1.1,0.7-2.5,0.4-3.2-0.7c-0.7-1.1-0.4-2.5,0.7-3.2l0,0c3.7-2.2,7.6-4,11.7-5.3
	c4.1-1.4,8.4-2.3,12.8-2.6c1.3,0,2.3,1,2.3,2.3c0,1.2-0.9,2.2-2.1,2.3c-4,0.3-7.9,1.1-11.6,2.4C80.8,43,77.2,44.6,73.8,46.6z
	 M73.9,28.9c-1.1,0.7-2.5,0.4-3.2-0.7c-0.7-1.1-0.4-2.5,0.7-3.2c3.7-2.2,7.6-4,11.7-5.3c4.1-1.4,8.4-2.3,12.7-2.6
	c1.3-0.1,2.3,0.9,2.4,2.2c0.1,1.3-0.9,2.3-2.2,2.4l0,0c-3.9,0.3-7.8,1.1-11.6,2.4C80.8,25.3,77.2,26.9,73.9,28.9z M51.7,60.5
	c1.1,0.6,1.5,2,0.9,3.1c-0.6,1.1-2,1.5-3.1,0.9c-0.1,0-0.2-0.1-0.2-0.2c-3.4-2.1-7-3.7-10.7-4.9c-3.8-1.3-7.8-2.1-11.8-2.5
	c-1.3-0.1-2.2-1.2-2.2-2.4c0.1-1.3,1.2-2.2,2.4-2.2l0,0c4.4,0.3,8.8,1.2,13,2.7C44.1,56.4,48.1,58.3,51.7,60.5L51.7,60.5z
	 M51.5,42.8c1.1,0.7,1.4,2.1,0.7,3.2c-0.7,1.1-2.1,1.4-3.2,0.7c-3.4-2-6.9-3.6-10.7-4.8c-3.8-1.3-7.7-2.1-11.6-2.4
	c-1.3-0.1-2.2-1.2-2.1-2.5s1.2-2.2,2.5-2.1c4.4,0.4,8.6,1.2,12.8,2.6C43.9,38.8,47.8,40.5,51.5,42.8L51.5,42.8z M51.4,25.1
	c1.1,0.6,1.5,2,0.9,3.1c-0.6,1.1-2,1.5-3.1,0.9c-0.1,0-0.2-0.1-0.2-0.1c-3.3-2-6.9-3.6-10.7-4.8c-3.8-1.3-7.6-2.1-11.6-2.4
	c-1.3-0.1-2.2-1.2-2.2-2.4c0.1-1.3,1.2-2.2,2.4-2.2l0,0c4.3,0.3,8.6,1.2,12.7,2.6C43.8,21.1,47.8,22.8,51.4,25.1L51.4,25.1z
	 M104.6,7c-7.4-0.7-18.1,0.1-24.7,2.6c-6.2,2.2-11.5,6.3-15.1,11.8v60.3c5.2-3.6,10.8-6.5,16.7-8.7c7.5-2.4,15.3-3.4,23.1-2.9V7z
	 M58.3,81.1V21.4c-3.4-5.9-8.8-9.9-14.9-12.2c-7-2.7-17.8-3.3-24.6-2.3l-0.4,63.6c7.4-0.3,17.7,0.7,24.5,2.9
	C48.4,75.1,53.6,77.7,58.3,81.1z"/>
</svg>
