<?xml version="1.0" encoding="utf-8"?>
<!-- Generator: Adobe Illustrator 26.0.3, SVG Export Plug-In . SVG Version: 6.00 Build 0)  -->
<svg version="1.1" id="Layer_1" xmlns="http://www.w3.org/2000/svg" xmlns:xlink="http://www.w3.org/1999/xlink" x="0px" y="0px"
	 viewBox="0 0 122.9 101.9" style="enable-background:new 0 0 122.9 101.9;" xml:space="preserve">
<style type="text/css">
	.st0{fill:#FFFFFF;}
</style>
<path class="st0" d="M44,80.3c-11.3-20.3-4-46,16.4-57.2c5.4-3,11.4-4.8,17.5-5.2v-7.1c0-0.1,0-0.2,0-0.3H70c-1.3,0-2.3-1.1-2.3-2.4
	V2.3c0-1.3,1-2.3,2.3-2.3h23.7c1.3,0,2.3,1.1,2.3,2.3v5.8c0,1.3-1.1,2.3-2.3,2.4h-7.9c0,0.1,0,0.2,0,0.3V18l0,0
	c23.1,2.8,39.5,23.8,36.7,46.8c-2.8,23.1-23.8,39.5-46.8,36.7C62.3,100,50.6,92,44,80.3z M84.2,53.5c3.5,1.9,4.8,6.2,2.9,9.7
	c-1.9,3.5-6.2,4.8-9.7,2.9s-4.8-6.2-2.9-9.7c0.7-1.2,1.7-2.2,2.9-2.9V37.2c0-1.9,1.5-3.4,3.4-3.4c1.9,0,3.4,1.5,3.4,3.4l0,0V53.5z
	 M118.6,30.7c1.6-3.9,1.4-8-0.9-10.7c-2.8-3.3-7.9-3.7-12.6-1.4C110.1,22.1,114.7,26.1,118.6,30.7z M43,30.7
	c-1.6-3.9-1.4-8,0.9-10.7c2.8-3.3,7.9-3.7,12.6-1.4C51.5,22.1,46.9,26.1,43,30.7L43,30.7z M46.6,68.8c4.9,19,24.3,30.4,43.3,25.5
	S120.2,70,115.3,51c-4.9-19-24.3-30.4-43.3-25.5c-13.2,3.4-23.3,14.1-26,27.5C45.1,58.2,45.3,63.6,46.6,68.8z"/>
<path class="st0" d="M12.9,44.1c-1.9,0-3.4-1.5-3.4-3.4s1.5-3.4,3.4-3.4H31c1.9,0,3.4,1.5,3.4,3.4s-1.5,3.4-3.4,3.4H12.9z"/>
<path class="st0" d="M3.4,63.5c-1.9,0-3.4-1.5-3.4-3.4s1.5-3.4,3.4-3.4h24c1.9,0,3.4,1.5,3.4,3.4s-1.5,3.4-3.4,3.4H3.4z"/>
<path class="st0" d="M13.1,83.3c-1.9,0-3.4-1.5-3.4-3.4c0-1.9,1.5-3.4,3.4-3.4h18.2c1.9,0,3.4,1.5,3.4,3.4c0,1.9-1.5,3.4-3.4,3.4
	H13.1z"/>
</svg>
