<?xml version="1.0" encoding="utf-8"?>
<!-- Generator: Adobe Illustrator 26.0.3, SVG Export Plug-In . SVG Version: 6.00 Build 0)  -->
<svg version="1.1" id="Layer_1" xmlns="http://www.w3.org/2000/svg" xmlns:xlink="http://www.w3.org/1999/xlink" x="0px" y="0px"
	 viewBox="0 0 97.4 122.9" style="enable-background:new 0 0 97.4 122.9;" xml:space="preserve">
<style type="text/css">
	.st0{fill:#A51C30;}
</style>
<path class="st0" d="M24.2,50.3h-5.5v2.1h6.8v4.4H13.1V39.5h12.2l-0.7,4.4h-6v2.3h5.5L24.2,50.3L24.2,50.3z M27.8,91.1
	c0.9-0.9,2.3-0.9,3.1,0c0,0,0,0,0,0c0.9,0.9,0.9,2.3,0,3.2l-2.7,2.8l2.8,2.8c0.9,0.9,0.9,2.3,0,3.2c0,0,0,0,0,0
	c-0.9,0.9-2.3,0.9-3.1,0c0,0,0,0,0,0l-2.7-2.8l-2.7,2.8c-0.9,0.9-2.3,0.9-3.1,0c0,0,0,0,0,0c-0.9-0.9-0.9-2.3,0-3.2l2.8-2.8
	l-2.8-2.8c-0.9-0.9-0.9-2.3,0-3.2c0.9-0.9,2.3-0.9,3.1,0l2.7,2.8L27.8,91.1L27.8,91.1z M17.3,76c-0.9-1.2-0.7-2.9,0.5-3.8
	c1.2-0.9,2.9-0.7,3.8,0.5c0.1,0.1,0.2,0.2,0.2,0.4l1.5,1.6l5.2-6.5c1-1.2,2.7-1.3,3.8-0.4s1.3,2.7,0.4,3.8l0,0l-7.4,8.9
	c-0.2,0.2-0.4,0.4-0.6,0.6c-1.3,0.8-3,0.5-3.8-0.8L17.3,76z M37.7,5.1v5.1c0,1.3-1,2.4-2.3,2.5c-0.3,0.1-0.6,0.1-0.9,0.1H25v10.5
	h47.4V12.9H63c-0.3,0-0.6,0-0.9-0.1c-1.3-0.1-2.3-1.2-2.3-2.5V5.1L37.7,5.1z M23.7,28.6c-1,0-2-0.4-2.7-1.1
	c-0.1-0.1-0.1-0.2-0.2-0.3c-0.6-0.7-0.9-1.6-0.9-2.5v-5.2H5.7c-0.2,0-0.3,0.1-0.4,0.2c-0.1,0.1-0.2,0.3-0.2,0.4v97
	c0,0.2,0.1,0.3,0.2,0.4c0.1,0.1,0.2,0.2,0.4,0.2h86.1c0.2,0,0.3-0.1,0.4-0.2c0.1-0.1,0.2-0.2,0.2-0.4v-97c0-0.2-0.1-0.3-0.2-0.4
	c-0.1-0.1-0.2-0.2-0.4-0.2H77.6v5.2c0,0.9-0.3,1.8-0.9,2.5c-0.1,0.1-0.1,0.2-0.2,0.3c-0.7,0.7-1.7,1.1-2.7,1.1L23.7,28.6z
	 M5.7,122.9c-1.5,0-2.9-0.6-4-1.7c-1.1-1.1-1.7-2.5-1.7-4v-97c0-1.5,0.6-2.9,1.7-4c1.1-1.1,2.5-1.7,4-1.7h14.2v-2.9
	c0-1,0.4-2,1.1-2.7c0.7-0.7,1.7-1.1,2.7-1.1h8.8V4.3c0-1.1,0.5-2.2,1.3-3c0.8-0.8,1.9-1.3,3-1.3h23.8c1.1,0,2.2,0.5,3,1.3
	c0.8,0.8,1.3,1.9,1.3,3v3.5h8.8c2.1,0,3.8,1.7,3.9,3.9v2.8h14.2c3.1,0,5.7,2.6,5.7,5.7v97c0,1.5-0.6,2.9-1.7,4
	c-1.1,1.1-2.5,1.7-4,1.7L5.7,122.9z M77.6,76.3c1.4,0,2.6-1.2,2.6-2.6c0-1.4-1.2-2.6-2.6-2.6c0,0,0,0,0,0H43.2
	c-1.4,0-2.6,1.2-2.6,2.6s1.2,2.6,2.6,2.6L77.6,76.3z M77.6,99.6c1.4,0,2.6-1.2,2.6-2.6s-1.2-2.6-2.6-2.6H43.2
	c-1.4,0-2.6,1.2-2.6,2.6s1.2,2.6,2.6,2.6H77.6z M33.7,39.5l1.9,4.6h0.3l1.9-4.6h6L40,47.9l3.8,8.9h-6.2l-2.1-5h-0.2l-2,5h-5.9
	l3.8-8.8l-3.8-8.5H33.7z M50.4,56.8h-5.8L49,39.5h8.5L62,56.8h-5.8l-0.6-2.7H51L50.4,56.8L50.4,56.8z M53.2,44.8L52,49.7h2.5
	l-1.1-4.8L53.2,44.8z M69.1,56.8h-5.8l1.1-17.3h7.2l2.2,8.8h0.2l2.2-8.8h7.2l1,17.3h-5.7l-0.3-8.4H78l-2.1,8.4h-4.2l-2.1-8.4h-0.2
	L69.1,56.8z"/>
</svg>
