<?xml version="1.0" encoding="utf-8"?>
<!-- Generator: Adobe Illustrator 26.0.3, SVG Export Plug-In . SVG Version: 6.00 Build 0)  -->
<svg version="1.1"
	 id="Layer_1" shape-rendering="geometricPrecision" text-rendering="geometricPrecision" image-rendering="optimizeQuality"
	 xmlns="http://www.w3.org/2000/svg" xmlns:xlink="http://www.w3.org/1999/xlink" x="0px" y="0px" viewBox="0 0 512 488.4"
	 style="enable-background:new 0 0 512 488.4;" xml:space="preserve">
<style type="text/css">
	.st0{fill-rule:evenodd;clip-rule:evenodd;fill:#A51C30;}
</style>
<path class="st0" d="M512,391.3v77.9c0,10.2-8.4,18.7-18.7,18.7h-43.1l0-115.2l43.1,0C503.6,372.6,512,381.1,512,391.3L512,391.3z
	 M67.2,348.9c0,0.8-0.1,1.7-0.2,2.5L47.2,362c-5.1-2.2-8.7-7.3-8.7-13.2V101.7c0-6.8,2.7-13,7.1-17.5c4.6-4.7,10.8-7.4,17.6-7.4
	h15.9c7.9,0,14.3,6.4,14.3,14.3c0,7.9-6.4,14.3-14.3,14.3h-12V348.9z M200.6,305c-7.9,0-14.3-6.4-14.3-14.3
	c0-7.9,6.4-14.3,14.3-14.3h151.1c7.9,0,14.3,6.4,14.3,14.3c0,7.9-6.4,14.3-14.3,14.3H200.6z M200.6,234.7c-7.9,0-14.3-6.4-14.3-14.3
	c0-7.9,6.4-14.3,14.3-14.3h195.5c7.9,0,14.3,6.4,14.3,14.3c0,7.9-6.4,14.3-14.3,14.3H200.6z M348.9,5.2l117.5,123.5
	c5.9,1.8,10.1,7.3,10.1,13.7v196.4l-26.3,0l-2.4,0.1V159.4l-110,0.1c-7.9,0-14.3-6.4-14.3-14.3V28.7H145.5v310.9l-28.7,0V24.9
	c0-6.8,2.8-13.1,7.3-17.6C128.7,2.8,135,0,141.8,0h194.5l0.8,0l0.8,0C342.3,0,346.3,2,348.9,5.2z M428.9,130.8l-76.7-80.6v80.6
	H428.9z M97,488.4c-20.4-10.8-40.8-21.5-61.2-32.3c-42.5-25.2-48.8-17.5-10.1-42.9L97,373.4l331.5-0.8v115.2L97,488.4L97,488.4z
	 M97,393.1v75.6c-13.4-7.1-26.8-14.2-40.2-21.2C7.3,423.4,47.8,422,97,393.1z"/>
</svg>
