<?xml version="1.0" encoding="utf-8"?>
<!-- Generator: Adobe Illustrator 26.0.3, SVG Export Plug-In . SVG Version: 6.00 Build 0)  -->
<svg version="1.1" id="Layer_1" xmlns="http://www.w3.org/2000/svg" xmlns:xlink="http://www.w3.org/1999/xlink" x="0px" y="0px"
	 viewBox="0 0 96.2 122.9" style="enable-background:new 0 0 96.2 122.9;" xml:space="preserve">
<style type="text/css">
	.st0{fill:#A51C30;}
</style>
<g>
	<path class="st0" d="M62.7,110.3l21.5-22.6H62.7V110.3L62.7,110.3z M18.9,61.9h58.3v5.5H18.9L18.9,61.9L18.9,61.9z M18.9,75.5h27.3
		v5.5H18.9V75.5L18.9,75.5z M18.9,89.1h19.2v5.5H18.9V89.1L18.9,89.1z M38.9,43.5h-8l-1.4,5.7H18.9l9.7-29.8h12.6L51,49.2H40.2
		L38.9,43.5L38.9,43.5z M37.3,36.9L34.9,27h-0.1l-1.2,5.1l-1.2,4.9L37.3,36.9L37.3,36.9z M75.2,37.7h-7.6v9h-7.9v-9H52v-6.9h7.7v-9
		h7.9v9h7.6V37.7L75.2,37.7z M96.2,84.8c0,1.6-1.1,3-2.6,3.4l-31.6,33.3c-0.7,0.8-1.7,1.3-2.8,1.3H6.4c-1.8,0-3.4-0.7-4.6-1.9
		c-1.2-1.2-1.9-2.8-1.9-4.6V6.4C0,4.6,0.7,3,1.9,1.9S4.7,0,6.4,0h83.3c1.8,0,3.4,0.7,4.6,1.9s1.9,2.8,1.9,4.6V84.8L96.2,84.8z
		 M89,80.6V7.2H7.2v108.6h48.4V84.2c0-2,1.6-3.6,3.6-3.6H89L89,80.6z"/>
</g>
</svg>
