<?xml version="1.0" encoding="utf-8"?>
<!-- Generator: Adobe Illustrator 26.0.3, SVG Export Plug-In . SVG Version: 6.00 Build 0)  -->
<svg version="1.1"
	 id="Layer_1" shape-rendering="geometricPrecision" text-rendering="geometricPrecision" image-rendering="optimizeQuality"
	 xmlns="http://www.w3.org/2000/svg" xmlns:xlink="http://www.w3.org/1999/xlink" x="0px" y="0px" viewBox="0 0 512 512"
	 style="enable-background:new 0 0 512 512;" xml:space="preserve">
<style type="text/css">
	.st0{fill-rule:evenodd;clip-rule:evenodd;fill:#A51C30;}
</style>
<path class="st0" d="M256,0c70.7,0,134.7,28.7,181,75s75,110.3,75,181s-28.7,134.7-75,181s-110.3,75-181,75s-134.7-28.7-181-75
	S0,326.7,0,256S28.7,121.3,75,75S185.3,0,256,0z M245.8,191.9c-7.1-0.1-13.1-2.5-18.2-7.6c-5.1-5-7.6-11.1-7.6-18.2
	c0-7,2.5-13.1,7.6-18.1c5.1-5,11.1-7.6,18.2-7.6c6.9,0,13,2.5,18.1,7.6c5.1,5,7.7,11.1,7.7,18.1c0,4.7-1.2,9.1-3.6,12.9
	c-2.4,3.9-5.5,7.1-9.3,9.4C254.8,190.7,250.5,191.8,245.8,191.9L245.8,191.9z M273.7,342.2h29.1v29.3h-93.8v-29.3h28.8v-92.3h-28.8
	v-29.3h64.6V342.2z"/>
</svg>
