<?xml version="1.0" encoding="utf-8"?>
<!-- Generator: Adobe Illustrator 26.0.3, SVG Export Plug-In . SVG Version: 6.00 Build 0)  -->
<svg version="1.1" id="Layer_1" xmlns="http://www.w3.org/2000/svg" xmlns:xlink="http://www.w3.org/1999/xlink" x="0px" y="0px"
	 viewBox="0 0 121.7 122.9" style="enable-background:new 0 0 121.7 122.9;" xml:space="preserve">
<style type="text/css">
	.st0{fill-rule:evenodd;clip-rule:evenodd;fill:#A51C30;}
</style>
<path class="st0" d="M53.6,0c29.6,0,53.6,24,53.6,53.6c0,10.4-3,20.6-8.8,29.4l23.2,25.3l-16,14.6L83.3,98.3
	C58.7,114.7,25.4,108,9,83.3S-0.7,25.4,23.9,9C32.7,3.1,43,0,53.6,0z M46,63.7v-1.3c-0.1-2.4,0.2-4.7,0.7-7c1.4-5.3,4.6-6.2,8.4-9.2
	c1.6-1.2,2.9-2.7,2.9-4.8c0-3.8-4.3-5.5-7.4-3.8c-1.7,0.9-2.7,2.6-2.7,4.5H34.3c0-6.9,3-12.2,9.5-14.8c6.3-2.3,13.2-2.3,19.6,0
	c6.1,2.3,9.6,6.7,9.6,13.3c0.1,1.9-0.3,3.9-1.1,5.7c-2.7,5.8-6.8,6.3-10.8,9.9c-2.5,2.2-2.6,4.5-2.6,7.6H46z M52.5,81.6
	c-2,0-3.9-0.7-5.3-2.2C45.8,78,45,76.1,45,74.1c0-1.9,0.8-3.8,2.2-5.1c2.9-2.9,7.5-2.9,10.4,0c1.5,1.3,2.3,3.2,2.3,5.2
	c0,1.3-0.4,2.6-1.1,3.7c-0.7,1.1-1.6,2-2.7,2.7C55,81.3,53.8,81.6,52.5,81.6L52.5,81.6z M87.3,19.9C68.7,1.4,38.5,1.4,19.9,20
	S1.4,68.8,20,87.4s48.8,18.5,67.4-0.1c8.9-8.9,13.9-21.1,13.9-33.7C101.3,41,96.3,28.8,87.3,19.9z"/>
</svg>
