<?xml version="1.0" encoding="utf-8"?>
<!-- Generator: Adobe Illustrator 26.0.3, SVG Export Plug-In . SVG Version: 6.00 Build 0)  -->
<svg version="1.1" id="Layer_1" xmlns="http://www.w3.org/2000/svg" xmlns:xlink="http://www.w3.org/1999/xlink" x="0px" y="0px"
	 viewBox="0 0 128 128" style="enable-background:new 0 0 128 128;" xml:space="preserve">
<style type="text/css">
	.st0{fill:#A51C30;}
</style>
<g>
	<g>
		<g>
			<path class="st0" d="M109,128h-4V82.9l0.6-0.6c8.8-8.7,13.6-20.2,13.6-32.4C119.2,24.6,98.3,4,72.6,4C46.9,4,26,24.6,26,49.9
				c0,0.7,0,1.3,0.1,2l0,0.7L11.8,76.9h9.8v20.9c0,6,5,10.9,11.1,10.9h22.8V128h-4v-15.2H32.7c-8.3,0-15.1-6.7-15.1-14.9V80.9H4.8
				L22,51.6c0-0.6,0-1.1,0-1.7C22,22.4,44.7,0,72.6,0c27.9,0,50.6,22.4,50.6,49.9c0,13-5,25.3-14.2,34.7C109,84.6,109,128,109,128z"
				/>
		</g>
	</g>
	<g>
		<g>
			<path class="st0" d="M72,86.7c-20.6,0-37.3-16.5-37.3-36.8h4C38.7,68,53.6,82.7,72,82.7c18.3,0,33.3-14.7,33.3-32.8
				c0-18.1-14.9-32.8-33.3-32.8v-4c20.6,0,37.3,16.5,37.3,36.8C109.3,70.2,92.5,86.7,72,86.7z"/>
		</g>
		<g>
			<g>
				<path class="st0" d="M38.7,49.9h-4c0-0.7,0-1.4,0.1-2.1l4,0.2C38.7,48.7,38.7,49.3,38.7,49.9z"/>
			</g>
			<g>
				<path class="st0" d="M39.2,44.4l-3.9-0.7c0.2-1.4,0.6-2.8,1-4.1l3.8,1.1C39.7,41.9,39.4,43.2,39.2,44.4z M41.3,37.2l-3.7-1.6
					c0.6-1.3,1.2-2.6,1.9-3.8l3.5,2C42.4,34.9,41.8,36.1,41.3,37.2z M45,30.7l-3.2-2.4c0.8-1.1,1.7-2.2,2.7-3.2l2.9,2.7
					C46.6,28.7,45.8,29.7,45,30.7z M50.1,25.2l-2.6-3c1.1-0.9,2.2-1.8,3.3-2.6l2.2,3.3C52.1,23.6,51.1,24.4,50.1,25.2z M56.4,21
					l-1.9-3.5c1.2-0.6,2.5-1.2,3.8-1.7l1.4,3.7C58.6,19.9,57.5,20.4,56.4,21z M63.4,18.3l-1-3.9c1.4-0.4,2.7-0.6,4.1-0.8l0.6,4
					C65.8,17.7,64.6,17.9,63.4,18.3z"/>
			</g>
			<g>
				<path class="st0" d="M70.1,17.2l-0.2-4c0.7,0,1.4-0.1,2.1-0.1v4C71.4,17.1,70.7,17.2,70.1,17.2z"/>
			</g>
		</g>
	</g>
	<g>
		<g>
			<rect x="58.2" y="47.9" class="st0" width="27.6" height="4"/>
		</g>
		<g>
			<rect x="70" y="36.3" class="st0" width="4" height="27.2"/>
		</g>
	</g>
</g>
</svg>
