<?xml version="1.0" encoding="utf-8"?>
<!-- Generator: Adobe Illustrator 26.0.3, SVG Export Plug-In . SVG Version: 6.00 Build 0)  -->
<svg version="1.1" id="Layer_1" xmlns="http://www.w3.org/2000/svg" xmlns:xlink="http://www.w3.org/1999/xlink" x="0px" y="0px"
	 viewBox="0 0 122.9 98.3" style="enable-background:new 0 0 122.9 98.3;" xml:space="preserve">
<style type="text/css">
	.st0{fill-rule:evenodd;clip-rule:evenodd;fill:#A51C30;}
</style>
<g>
	<path class="st0" d="M8.3,0h106.2c4.6,0,8.3,3.7,8.3,8.3V90c0,4.6-3.7,8.3-8.3,8.3H8.3C3.7,98.3,0,94.6,0,90V8.3C0,3.7,3.7,0,8.3,0
		L8.3,0z M63.1,40.1l23.1,36.3c0.7,1.1,1.3,3.3,0,3.3H36.7c-1.3,0-0.7-2.2,0-3.3l23.1-36.3C60.5,39,62.4,39,63.1,40.1L63.1,40.1z
		 M59.4,70.1h4v3.6h-4V70.1L59.4,70.1z M63.4,67.6h-4c-0.4-4.9-1.2-8-1.2-12.9c0-1.8,1.5-3.3,3.3-3.3s3.3,1.5,3.3,3.3
		C64.7,59.6,63.8,62.8,63.4,67.6L63.4,67.6L63.4,67.6z M118,23.3H5.3v67.5c0,0.6,0.2,1.2,0.7,1.6s1,0.7,1.6,0.7h108
		c0.6,0,1.2-0.2,1.6-0.7c0.4-0.4,0.7-1,0.7-1.6L118,23.3L118,23.3L118,23.3z M106.6,9.4c2.3,0,4.1,1.8,4.1,4.1s-1.8,4.1-4.1,4.1
		c-2.3,0-4.1-1.8-4.1-4.1C102.5,11.2,104.4,9.4,106.6,9.4L106.6,9.4z M78.8,9.4c2.3,0,4.1,1.8,4.1,4.1s-1.8,4.1-4.1,4.1
		c-2.3,0-4.1-1.8-4.1-4.1S76.5,9.4,78.8,9.4L78.8,9.4z M92.7,9.4c2.3,0,4.1,1.8,4.1,4.1s-1.8,4.1-4.1,4.1c-2.3,0-4.1-1.8-4.1-4.1
		S90.4,9.4,92.7,9.4L92.7,9.4z"/>
</g>
</svg>
