<?xml version="1.0" encoding="utf-8"?>
<!-- Generator: Adobe Illustrator 26.0.3, SVG Export Plug-In . SVG Version: 6.00 Build 0)  -->
<svg version="1.1"
	 id="Layer_1" shape-rendering="geometricPrecision" text-rendering="geometricPrecision" image-rendering="optimizeQuality"
	 xmlns="http://www.w3.org/2000/svg" xmlns:xlink="http://www.w3.org/1999/xlink" x="0px" y="0px" viewBox="0 0 512 398.7"
	 style="enable-background:new 0 0 512 398.7;" xml:space="preserve">
<style type="text/css">
	.st0{fill:#A51C30;}
</style>
<path class="st0" d="M41.2,251.8c0.5-79.3,0.9-158.6,1.4-237.6c0-5.3,3.8-9.6,8.7-10.7v0c28.9-6,74.2-4.5,105.1,7.3
	c21.3,8.2,40.6,21.2,54.7,39.9c14.3-17.5,33.3-30.1,54.7-38.2C295,1.4,339-1.3,370.7,3.3c5.5,0.8,9.4,5.5,9.4,10.9h0v83.3
	c-6.7-0.9-13.5-1.4-20.2-1.4l-1.7,0V23.9c-25.4-2.4-61.8,0.4-84.7,9c-21.4,8.1-39.8,21.4-51.8,40.5v118.7
	c-12.8,34.3-12.8,72.9,1.8,108c3.1,7.5,6.8,14.6,11,21.4c-5.9,2-11.8,4.3-17.8,6.9c-1.9,1.2-4,1.8-6.2,1.8c-2.2,0-4.4-0.6-6.2-1.8
	c-29.5-13-58.9-18.2-88.2-18c-30.1,0.2-70.8,6-101.4,14.8c-1.1,0.4-2.3,0.6-3.6,0.6c-6.1,0-11-4.9-11-11V61.8c0-6.1,4.9-11,11-11h11
	v249.7c27.7-7.2,65.8-11.7,93.9-11.9c25.9-0.1,51.8,3.4,77.8,12.2c-16.1-13.1-34.1-22.7-53.3-28.9c-24.2-7.9-60.6-10.5-87.3-8.2
	c-6,0.5-11.4-4-11.9-10C41.1,253,41.1,252.4,41.2,251.8L41.2,251.8z M363,124.2c32.7,0,63.9,12.9,86.9,36
	c31.9,31.9,43.8,78.9,30.9,122.1c-3,9.9-7.2,19.4-12.5,28.3l42.1,46.3c2.2,2.4,2,6.1-0.4,8.3l-35,31.9c-2.4,2.2-6.1,2-8.3-0.3
	c0,0,0,0,0,0l-40-44.5c-19.3,11.8-41.2,17.9-63.8,17.9c-32.7,0-63.8-12.9-86.9-36c-11.4-11.4-20.5-25-26.7-39.9
	c-19.1-45.9-8.2-99.1,26.7-134c11.3-11.3,24.8-20.4,39.9-26.7C330.5,127.5,346.4,124.2,363,124.2z M432.4,177.8
	c-28-28-70.4-36.4-106.9-21.3c-65.4,27.1-80.5,111.5-31.9,160.1c28.1,28,70.4,36.4,106.9,21.3c36.7-15.2,60.6-51,60.6-90.7
	c0-13.3-2.6-26-7.4-37.5C448.8,197.7,441.5,186.9,432.4,177.8L432.4,177.8z M398.9,101.3V50.8h11c6.1,0,11,4.9,11,11v47.4
	C413.8,106.1,406.4,103.4,398.9,101.3L398.9,101.3z M241.3,155.8c-1.2-3.5,0.1-7.3,3.2-9.3c2.9-1.9,6-3.6,9.2-5.3
	C249.2,145.8,245.1,150.7,241.3,155.8z M253.1,99.1c-3.7,2.3-8.6,1.2-10.9-2.4c-2.3-3.7-1.2-8.6,2.4-10.9
	c11.2-7.1,25.6-13.4,40.1-18.1c15.5-5,31.2-8.2,43.6-8.9c4.3-0.2,8.1,3.1,8.3,7.4c0.2,4.3-3.1,8.1-7.4,8.3
	c-11.1,0.6-25.5,3.6-39.7,8.2C276.4,87,263.3,92.7,253.1,99.1L253.1,99.1z M177.2,207.4c3.6,2.4,4.7,7.3,2.3,10.9
	c-2.4,3.6-7.2,4.7-10.9,2.3c-10.1-6.5-23.3-12.3-36.7-16.7c-14.5-4.7-29.1-7.8-40.4-8.4c-4.3-0.2-7.7-3.9-7.4-8.3
	c0.2-4.3,3.9-7.7,8.3-7.4c12.7,0.7,28.7,4.1,44.4,9.1C151.5,193.7,166,200.1,177.2,207.4z M176.4,146.5c3.7,2.3,4.7,7.2,2.4,10.9
	c0,0,0,0,0,0c-2.3,3.6-7.2,4.7-10.9,2.4c-10.1-6.4-23.2-12.1-36.6-16.4c-14.3-4.6-28.7-7.6-39.8-8.2c-4.3-0.2-7.7-3.9-7.4-8.3
	c0.2-4.3,3.9-7.7,8.3-7.4c12.4,0.7,28.3,4,43.8,9C150.7,133,165.1,139.3,176.4,146.5z M176.2,85.8c3.7,2.3,4.8,7.2,2.4,10.9
	c0,0,0,0,0,0c-2.3,3.7-7.2,4.8-10.9,2.4c-10.2-6.4-23.3-12.1-36.5-16.4c-14.2-4.6-28.6-7.6-39.7-8.2c-4.3-0.2-7.7-3.9-7.4-8.3
	c0.2-4.3,3.9-7.7,8.3-7.4c12.4,0.7,28.2,3.9,43.6,8.9C150.6,72.4,165,78.7,176.2,85.8z M199.6,277.8V73.2
	c-11.5-20.3-30.1-33.9-51.2-41.9c-23.8-9.1-60.8-11.2-84.1-7.9l-1.2,217.7c25.4-0.9,60.6,2.3,84,9.9
	C165.8,257.2,183.4,266,199.6,277.8L199.6,277.8z"/>
</svg>
