<?xml version="1.0" encoding="utf-8"?>
<!-- Generator: Adobe Illustrator 26.0.3, SVG Export Plug-In . SVG Version: 6.00 Build 0)  -->
<svg version="1.1" id="Layer_1" xmlns="http://www.w3.org/2000/svg" xmlns:xlink="http://www.w3.org/1999/xlink" x="0px" y="0px"
	 viewBox="0 0 969.2 999.8" style="enable-background:new 0 0 969.2 999.8;" xml:space="preserve">
<style type="text/css">
	.st0{fill:#A51C30;}
</style>
<path class="st0" d="M122.2,999.8h-65c1-9.3,4.7-18,7.2-26.9c2.2-7.7,4.5-15.5,6.4-23.2c2.1-8.4,4.6-16.7,6.9-25
	c2.4-8.7,4.4-17.6,7.4-26.1c2.1-5.7,2.3-12.3,4.6-17.6c3.1-7.3,5-15,6.9-22.4c2.4-9.2,4.8-18.4,7.2-27.7c1.3-5.1,3-10,4.4-15.1
	c1.8-6.3,3.5-12.7,5-19.1s3.9-12.2,5.1-18.6c1-5.5,3.2-10.7,4.7-16.1c1.6-5.8,3.8-11.6,4.9-17.4c1.3-6.1,2.9-12.1,4.9-17.9
	c2.8-8.7,4.6-17.6,7.3-26.3c1.7-5.7,2.8-11.5,4.1-16.9c-30.2-2.2-60.9,2.2-91.4-2.3c-6.8-1-13.4-3.3-19.4-6.8
	c-12-6.8-21.8-16.5-27.5-29.3c-3.2-7.1-6-14.2-5.9-22.6c0.3-167.8,0.4-335.6,0.4-503.4c0-6.8-1.4-13.6,2.5-20.7
	c4.9-9.1,8.8-18.5,16.4-25.8C32.5,59.6,48.3,53.1,66.6,53c77.7-0.1,155.3-0.1,232.9,0c1.3,0,2.7,0,4,0c1.6,0,2.9-1,2.5-2.4
	c-1.1-3.9,1.2-7.2,2.4-10.4s0.6-6.3,2.1-9.4c1.1-2.8,2-5.8,2.6-8.8c2-7.4,3.1-15.2,7-22h62c1.1,7.4-2.8,13.9-4.6,20.7
	c-2.8,10.7-5.1,21.4-8.3,32.3c27.6,0,54.7,0,81.9,0.1c3.1,0,3-1.5,3-3.7c0-14,0.1-28-0.1-42c0-3.3,0.6-4.5,4.2-4.5
	c18.2,0.2,36.3,0.2,54.5,0c3.4,0,4.5,0.7,4.4,4.3c-0.2,14,0,28-0.2,42c0,3,0.7,3.9,3.8,3.9c16.3-0.2,32.7-0.1,49-0.1
	c9.5,0,19,0,28.5,0c2.5,0,3.4,0,1.8-3.1c-2.8-5.3-4.8-11-7-16.7c-2.5-6.5-4.9-13.1-7-19.7c-1.5-4.5-5.2-8.3-5.1-13.4h66
	c1,2.5,2,5.1,3,7.6c2.5,6.1,5.4,12.1,7.3,18.4c2.1,7.1,5.3,13.8,7.4,20.8c1.4,4.7,3,6.3,7.8,6.3c74.1-0.1,148.3,0,222.4-0.1
	c15.2,0,30,1.6,43.1,10.1c6.6,4.3,13,9,17.7,15.5c2.8,3.8,5.2,8,7.2,12.3c2.8,6.6,6.3,12.5,6.3,20.3c-0.2,168.3-0.3,336.6-0.3,504.8
	c0,7.2,1.8,14.5-2.6,21.6c-2.3,3.6-3.3,8.3-5.6,12.1c-6.7,11.1-16.5,20.1-28.2,25.8c-8.6,4.2-17.6,6.9-26.7,7.1
	c-26.3,0.7-52.6,0.3-79,0.3H822c2.4,8.5,5.3,16.6,6.9,25c1.7,8.8,4.2,17.5,6.7,26c2.4,8.3,3.8,17,7.1,25.1c0.8,2,2.7,3.9,2.3,6.3
	c-0.7,4.1,1.1,8.2,2.5,11.3c3.6,8.1,4,16.9,7.3,25c2.3,5.5,2.7,11.8,4.9,17.6c1.4,3.6,2.4,7.3,3.1,11.1c1.7,8.9,4.8,17.4,6.8,26.2
	c1.8,7.7,3.5,15.5,6,23.1c0.8,2.3,3,4.5,2.4,7.4c-0.8,3.9,1.2,7.8,2.5,10.8c2.5,5.8,3,12.1,5.2,18c0.8,2.2,2.3,4.4,2.5,7.2
	c0.5,4.4,1.6,8.7,3.2,12.8c2.6,7.6,4.5,15.4,6.6,23.2c1.6,5.9,2.9,11.9,4.6,17.7c2.2,7.5,5.4,14.8,5.4,22.9h-64
	c-1.4-2.6,0-5.9-1.2-8.1c-3.2-5.6-3.4-12.1-5.7-17.9c-2.7-6.6-3.3-13.7-5.6-20.4c-2.6-7.5-4.3-15.3-6.4-23c-2.3-8.4-5.1-16.7-7-25.1
	c-1.3-6-3.6-11.7-4.4-17.8c-0.3-3.1-1-6.2-2-9.1c-1.6-4-3.4-7.7-3.6-12.1c-0.2-5.5-2.4-7.4-7.9-7.4c-92.7,0-185.3,0-277.9-0.1
	c-4,0-5.2,0.8-5.2,5.1c0.2,41.5,0.1,83,0.2,124.5c0,3.7-0.9,4.7-4.6,4.6c-18-0.2-36-0.2-54,0c-3.9,0-4.6-1.1-4.6-4.7
	c0.1-41.3,0.1-82.6,0.1-124c0-1.7-0.2-3.5,0.7-5.4H164.6c-0.8,0-1.7,0.1-2.5,0c-1.4-0.1-0.9,1-1.2,1.5c-3.8,5.6-3.3,12.4-5.2,18.5
	c-0.5,1.7-2.5,3.2-2.2,4.2c1.2,4.4-1,8.3-2.2,11.9c-2.7,7.8-4.6,15.8-6.7,23.7c-2.1,8.4-4.6,16.7-6.8,25.1c-2.4,9-4.1,18.4-7.8,27
	c-1.6,3.7-1.6,7.5-2.9,11.1C125,987.6,122.3,993.4,122.2,999.8z M484.7,79c-139.6,0-279.2,0-418.9-0.1c-6.8,0-13.1,0.7-19.2,4
	c-13.1,7.1-21.3,17.8-21.3,32.6c-0.2,166-0.3,331.9-0.3,497.8c0,12.2,2.1,22.7,11.4,31.6c7.2,7,15.3,11.9,25.2,11.9
	c280.2,0.1,560.5,0.2,840.7,0.2c8.3,0,15.9-1.4,22.9-6.1c11.1-7.4,18.7-17,18.7-30.9c0.1-165.6,0.1-331.2,0.1-496.8
	c0-9.9-1.2-19-7-27.5c-6.8-9.8-16-16.5-27.6-16.5C767.9,78.9,626.3,78.8,484.7,79z M178.5,795.7c0.7,0.1,1.2,0.1,1.7,0.1
	c89.9,0,179.9,0,269.9,0.1c3.9,0,4.1-1.5,4.1-4.6c-0.1-34.3-0.2-68.6,0.1-103c0-4.6-1.2-5.6-5.7-5.6c-73.1,0.2-146.3,0.2-219.4,0.1
	c-5.2,0-10.3,0-15.5,0c-1.8,0-2.8,0.2-3.9,2.4c-3.8,8-5.1,16.7-7.7,25.1c-1,3.4-1.2,7.2-2.5,10.2c-3.2,7.2-4,15-6.1,22.5
	c-2.4,8.3-4.5,16.8-6.8,25.2C184.1,777.3,181.9,786.7,178.5,795.7z M789.1,795.8c-3.1-3.4-2.4-6.7-3.4-9.5
	c-4.5-12.7-7.4-25.9-11.3-38.8c-1.3-4.3-2.8-8.6-3.2-13c-0.6-6.5-4-12-4.8-18.6c-0.8-6.8-4.9-12.8-5.5-19.9c-0.2-3-1.6-5.8-2.5-8.7
	c-0.6-2.1-1.8-4.8-6-4.7c-77,0.3-153.9,0.3-230.9,0.1c-3.9,0-4.5,1.1-4.5,4.7c0.1,34.3,0.2,68.6,0,103c0,4.8,1.5,5.5,5.8,5.5
	c86.7-0.1,173.3-0.2,259.9-0.1L789.1,795.8z"/>
<path class="st0" d="M485.9,172c7.5-2.4,9.7,4.4,12.1,9.6c6.1,13.2,11.4,26.8,17.1,40.2c8.7,20.6,17.9,41,26.1,61.9
	c1.9,4.9,5.2,9.4,6.4,14.6c1.5,6,6.4,5.3,10.5,5.7c14.2,1.4,28.5,0.9,42.5,4c4.8,1,9.9,0.7,14.8,0.8c8.8,0.1,17.2,2.3,26,2.6
	c13.7,0.5,27.3,2.7,41,3.6c4.3,0.3,7.8,1.1,10.3,4.5c5.5,7.2,4,13-3.3,19.1c-6.1,5.1-11.8,10.6-17.9,15.8
	c-9.5,7.9-18.5,16.4-27.8,24.5c-15.2,13.2-30.5,26.1-45.6,39.4c-2.2,1.9-4.4,3.9-6.5,5.9c-3.8,3.7-0.9,8.2,0.1,11.5
	c2.2,7.4,3.5,15,5.4,22.5c1.8,7,3.1,14.2,4.7,21.2c1.7,7.4,3.6,14.7,5.3,22.1c1.5,6.3,3.2,12.5,4.4,18.8c2.2,11.6,5.7,22.9,7.7,34.6
	c0.9,5.3,1.8,10.2-2.7,14.5c-3.2,3-12.2,4.1-16,1.7c-12.2-7.7-24.8-15.1-37.2-22.5c-14-8.3-28-16.7-42.2-24.7
	c-10.6-6-21.4-11.8-31.2-19.3c-3.2-2.5-6.3-2-9.6,0c-15.3,9.4-30.7,18.8-46.1,28.1c-12.2,7.3-24.5,14.3-36.7,21.6
	c-9.4,5.6-18.7,11.5-28,17.2c-7.8,4.7-20.8-1.7-19.9-10.5c0.5-4.9,2.1-10,3.3-15c2.9-11.9,5.6-23.8,8.3-35.7c1.7-7.3,3.4-14.7,5-22
	c2.2-9.8,4.3-19.6,6.3-29.4c1.3-7.3,3-14.5,5.1-21.6c0.9-2.9,0.6-6,2.3-8.9c1-1.7-0.5-3.4-2-4.6c-9.4-8.1-18.8-16.1-28.2-24.2
	c-9.1-7.8-18.5-15.3-27.3-23.5c-8.9-8.4-18.6-16-27.6-24.3c-5.6-5.2-11.4-10.1-17.1-15.2c-4.3-3.9-4.8-9-2.5-13.8
	c1.9-4.3,6-7.2,10.7-7.5c12.5-1.1,25-3.1,37.5-3.7c8.2-0.4,16.3-1.7,24.5-2.2c13.9-0.8,27.7-2.3,41.5-3.9c6-0.7,12.2-0.3,18.3-1
	c3.5-0.4,7.1-0.9,10.7-1.1c1.9-0.1,2.4-1.5,3-2.8c5.6-13.2,10.8-26.6,16.8-39.7c4.6-10.1,9-20.2,13.4-30.4c3.5-8,7.4-15.9,10.3-24.2
	c3.2-9.4,8-18.3,11.4-27.8C474.9,173.6,478.8,172,485.9,172z"/>
<path class="st0" d="M140.4,321.8c16.4,14,31.9,27,47,40.3c8.9,7.9,17.9,15.8,26.9,23.7c4.9,4.3,5.1,10,3.4,16.4
	c-3.3,12.5-5.2,25.3-8.7,37.7c-2.7,9.6-4.4,19.3-7.1,28.9c-2.1,7.4-3.3,15.1-5.1,23.4c9.8-5.8,19-11.2,28.1-16.6
	c15.6-9.2,31.1-18.5,46.7-27.7c2.8-1.7,5.5-3.5,8.3-5.2c3.7-2.4,8.3-2.4,12.1-0.2c12.9,7.6,25.6,15.6,38.6,23.2
	c2.7,1.6,2.6,3,1.9,5.5c-1.7,6.2-3.1,12.5-4.4,18.7c-0.8,3.6-3.5,2.3-4.8,1.5c-5.1-3.1-10.1-6.4-15.4-9.3
	c-6.4-3.5-12.5-7.4-18.4-11.6c-3.2-2.3-5.5-0.8-7.9,0.6c-11.1,6.8-21.8,14.5-33.4,20.5c-11,5.8-21.1,13-32.2,18.5
	c-3.8,2-7.4,4.4-10.7,7c-10.7,7.8-25.2,5.8-31.1-1.7c-5.9-7.5-6-15.5-3.7-24.5c2.6-10,4.6-20.1,7-30.2c2.5-10.5,4.6-21.1,7.1-31.6
	c2.1-8.9,4.4-17.8,6.6-26.8c0.6-2.3-1.1-3.4-2.4-4.5c-11.8-10.5-23.6-21-35.5-31.5c-10.6-9.3-21.2-18.6-31.8-27.8
	c-3.4-2.9-7.4-5.2-9.1-9.7c-0.1-0.2-0.8-0.3-0.8-0.4c0.3-7-2.2-14.2,1.4-20.8s9.5-9.3,16.9-9.9c12.2-1,24.4-2.6,36.6-3.9
	c0.7,0,1.3,0,2,0c15,0.3,29.7-3.4,44.8-3.4c4.2,0,8.9-1.5,13.4-1.8c2.4-0.2,2.9-3.2,3.5-5.1c6.9-20.1,16.8-39,24.4-58.8
	c3.6-9.3,7.6-18.6,11.9-27.6s12.2-13.2,22.6-12.5c5.3,0.4,14.9,7.7,17.5,14.2c6.2,16,13.8,31.4,20.3,47.2c3,7.3,6.4,14.5,9.4,21.8
	c2.3,5.5,1.9,6.1-3.9,5.8s-11.2,2.4-17,2.2c-3-0.1-4.4-0.7-5.6-3.9c-4.2-10.5-9.6-20.6-13.6-31.1c-2.4-6.4-6.1-12.1-7.9-18.7
	c-0.4-1.3-0.4-3.3-2.2-3.2c-1.5,0-1.9,1.8-2.3,2.9c-6.9,19.4-16.5,37.5-24.1,56.6c-3.2,8-6.9,15.9-9.6,24.2
	c-2.2,6.6-8.4,11.1-15.4,11.2c-14.6,0.6-29.1,2.4-43.6,3.8c-7.5,0.8-15.1,1.7-22.5,1.7C159.5,319.5,151,322.7,140.4,321.8z"/>
<path class="st0" d="M683.7,216.6c-1.8,7.8-5.6,13.8-8.2,20.4c-3.2,8.1-7,16-10.4,24.1c-1.4,3.4-3.3,6.6-4.2,10.2
	c-1.3,5.2-5.8,5.4-10,4.6c-5.2-1-10.2-2-15.5-2c-4.4,0-2.4-3.2-1.7-4.9c2.5-6.4,5.2-12.8,8-19.1c5-11.3,9.7-22.7,14.6-34
	c3.5-8.1,5.7-17,11.8-23.9c10.9-12.3,30-8,36,6.8c3.9,9.9,8.2,19.5,12.5,29.2c5,11.2,9.7,22.7,14.5,34c3.6,8.4,7.4,16.7,10.9,25.2
	c0.4,1,0.4,2,1.7,1.8c7.1-1.1,13.7,2.1,20.8,2.3c13.5,0.4,27,2.6,40.5,3.6c5.4,0.4,10.8,0.5,16.3,1.1c7.5,0.8,15.1,1.1,22.5,2.1
	c8.3,1.2,15.2,9.7,15.2,18c-0.1,2.3-0.1,4.7,0,7c0.6,5.5-2.5,8.9-6.4,12c-5.4,4.5-10.9,9-16,13.8c-10.9,10.4-22.6,19.8-33.9,29.7
	c-7.5,6.7-15.2,13.2-22.8,19.8c-3.5,3-0.2,6.3,0.4,8.8c3.6,15.2,6.8,30.5,10.2,45.8c1.7,7.3,3.4,14.8,4.8,22.3
	c1.2,6.9,2.8,13.7,4.9,20.4c3.8,11.7-6.2,26.8-20,26.5c-8.1-0.2-13.8-4.2-20-7.7c-12.2-6.9-24.2-14.2-36.2-21.5
	c-11.7-7.1-23.3-14.3-35-21.4c-3.3-2-6.5-2.6-10-0.2c-8.7,6.2-18.6,10.3-27,17c-1.8,1.5-4.1,1.9-6.1,3.3s-4.8,0-4.8-2.8
	c-0.2-6.3-2.9-11.9-4-18c-0.5-2.6-0.1-4.5,3-6.1c10.8-5.9,21.6-11.9,31.6-19c7.4-5.2,14.7-6.4,22.8-0.8
	c12.3,8.5,25.6,15.6,38.6,23.1c13.2,7.6,26.1,16,39.4,24.1c1.5-3.3,0.1-6.5-0.9-8.6c-1.8-3.9-1.3-8-2.7-11.7
	c-2-5.3-1.5-11.1-4.5-16.1c-1.2-2-0.8-4.5-1.2-6.7c-1.8-10-4.4-19.8-6.6-29.7c-1.4-6.2-2.4-12.6-4.7-18.6c-3.4-9,2.3-14.5,8.1-19.2
	c9.5-7.7,18.5-15.8,27.6-23.8c13.5-11.8,27.1-23.5,41.6-36.1c-7.7,1.8-14-1.6-20.8-1.9c-16-0.8-32-2.5-48.1-3.8
	c-8.2-0.7-16.3-1.6-24.5-2s-13-3.8-16-11.7c-3.7-9.6-8.1-19-12.1-28.4c-2.5-5.8-5.1-11.7-7.3-17.7c-3-8.1-7.1-15.8-10.5-23.8
	C687.9,227.4,686,222.3,683.7,216.6z"/>
</svg>
