<?xml version="1.0" encoding="utf-8"?>
<!-- Generator: Adobe Illustrator 26.0.3, SVG Export Plug-In . SVG Version: 6.00 Build 0)  -->
<svg version="1.1" id="Layer_1" xmlns="http://www.w3.org/2000/svg" xmlns:xlink="http://www.w3.org/1999/xlink" x="0px" y="0px"
	 viewBox="0 0 858 999.8" style="enable-background:new 0 0 858 999.8;" xml:space="preserve">
<style type="text/css">
	.st0{fill:#A51C30;}
</style>
<path class="st0" d="M0,894.8V132c3,0.1,1.7-2.3,1.8-3.4c0.8-10.4,3-20.7,6.4-30.6c9.3-27,24.8-49.8,47.5-67.4
	c16.6-13.1,35.9-22.3,56.4-27c3.9-0.9,8.6,0,11.8-3.5h706.8c-1.2,2.7-0.6,5.6-0.6,8.4c0,250.8,0,501.5,0,752.3c0,2,0.1,4,0,6
	c0,6-3.1,11.5-8.2,14.6c-5.5,3.6-11.6,5-17.9,5.7c-11.3,1.2-22.6,0.3-33.9,0.3c-211.6-0.1-423.2-0.1-634.8,0c-8,0-15.9,1.1-23.6,3.5
	c-39.8,12.2-62.3,53.6-50.7,93.2c9.2,31.3,38.8,53.7,71.5,53.7c220.3,0,440.5,0.1,660.8,0.1c4.6,0,5.5-1.6,5.4-5.8
	c-0.2-23,0-46-0.2-69c0-4.1,1.3-5.5,5.5-5.5c16.2,0.2,32.3,0.2,48.5,0c4,0,5.2,1.5,5.2,5.3c-0.1,31.7,0.2,63.3-0.1,95
	c-0.2,21.5-14.5,35.2-36.2,35.2c-222.3,0-444.5,0-666.8,0c-9.6,0-19.4-0.7-28.5,3.2c-3.1,1.3-7.2,0.2-9.4,3.7H83
	c-0.9-1.7-0.9-1.7-3-2.2c-16.7-4.3-31.5-12.1-43.8-24.4c-20.6-20.7-31.6-45.9-34.4-74.9C1.7,897.2,3.1,894.7,0,894.8z M428.6,547.9
	H624c1.2,0,2.3,0.1,3.5,0c5.6-0.4,11.2-5.4,10.2-10c-1.2-5.3-1.9-10.9-4.9-15.6c-9.1-14.6-18.3-29.1-27.5-43.6
	c-9.5-15-19.2-29.8-28.7-44.8c-17.5-27.6-34.8-55.4-52.3-83c-13-20.4-26.2-40.6-39.3-61c-14-21.8-28.2-43.4-41.6-65.5
	c-6-9.9-22.9-10.1-28.7-0.4c-5.9,9.9-12.4,19.5-18.6,29.2c-11.7,18.2-23.8,36.1-35,54.6c-9.5,15.7-19.6,31-29.3,46.5
	c-7.1,11.2-14.4,22.4-21.6,33.5c-10.5,16.2-20.7,32.8-31.2,49.1c-11.4,17.7-22.8,35.4-33.7,53.3c-7.6,12.4-17.1,23.7-22.4,37.4
	c-1.5,4-3.7,8.3-2.7,12.7c1.2,5.2,5.8,7.6,12.6,7.6L428.6,547.9z"/>
<path class="st0" d="M439.2,819.9H740c13.3,0,19.9,9.8,14.8,22.3c-1.8,4.4-5.4,6.6-10,7.2c-1.3,0.1-2.7,0.1-4,0.1
	c-201.1,0-402.1,0-603.2,0c-2.8,0-5.7,0.3-8.4-0.9c-6.4-2.9-8.9-9.7-6.9-19.5c1.1-5.6,5.4-8.8,12-9.1c2.2-0.1,4.3,0,6.5,0
	L439.2,819.9z"/>
<path class="st0" d="M438.4,907.5c-100.8,0-201.6,0-302.4,0.1c-5.5,0-10.3-1.3-12.5-6.4c-2.6-6.1-2.8-12.8,1-18.7
	c1.9-3,5.1-4.2,8.6-4.3c2-0.1,4,0,6,0h601.3c13,0,19.4,9.2,14.7,21.6c-1.9,5-6.1,7.3-11.3,7.8c-2,0.2-4,0-6,0L438.4,907.5z"/>
<path class="st0" d="M453.9,355.3c0.4,13.1-2.2,26.8-3.6,40.7c-1.3,12.9-4.3,25.6-4.4,38.6c0,3.4-1.4,6.8-1,10.3
	c0.2,2.2-1.2,2.9-3.1,2.9h-26c-1.5,0-2.5-0.2-2.7-2.1c-0.9-9-1.8-17.9-2.8-26.9c-1-8.3-2.2-16.5-3.3-24.8c-2.2-17.4-3.6-34.8-3-52.3
	c0.1-2.8,0-5.5,1.2-8.2c3.2-7.5,8.2-11.8,16.1-14.9c9.8-3.9,24.2,1.7,28.9,9.4c2.3,3.8,4.1,7.7,3.9,12.4S453.9,349.7,453.9,355.3z"
	/>
<path class="st0" d="M428.6,468.9c4.3,0,8.6,0,13,0c2.7,0,3.4,1.1,2.9,3.8c-1,6.7-1.1,13.5-0.1,20.2c0.4,2.8-0.1,3.7-2.8,3.7
	c-8.7,0-17.3,0-26,0c-2.3,0-2.9-1.1-2.5-3.1c1.3-7.1,1.3-14.4,0-21.6c-0.5-2.5,0.6-3.2,3-3.1C420.2,469,424.4,468.9,428.6,468.9z"/>
</svg>
