<?xml version="1.0" encoding="utf-8"?>
<!-- Generator: Adobe Illustrator 26.0.3, SVG Export Plug-In . SVG Version: 6.00 Build 0)  -->
<svg version="1.1" id="Layer_1" xmlns="http://www.w3.org/2000/svg" xmlns:xlink="http://www.w3.org/1999/xlink" x="0px" y="0px"
	 viewBox="0 0 720 410" style="enable-background:new 0 0 720 410;" xml:space="preserve">
<style type="text/css">
	.st0{fill:#A51C30;}
</style>
<g transform="translate(0.000000,410.000000) scale(0.100000,-0.100000)">
	<path class="st0" d="M4836,4075c-95-24-1269-376-1291-387c-32-16-55-51-55-84c0-66,7-68,645-259c325-97,623-183,663-191
		c92-18,273-18,372,0c58,11,749,219,998,301l42,14v-278c0-270-1-279-20-284c-18-5-20-14-20-97s2-92,20-97c13-3,20-14,20-29
		c0-13-9-33-20-44c-45-45-8-90,76-90c30,0,64,5,75,10c26,14,26,66-1,82c-12,8-20,24-20,40c0,21,5,28,20,28c19,0,20,7,20,99
		c0,90-2,99-20,104c-19,5-20,14-20,296v290l50,22c96,41,107,125,22,169c-13,6-308,97-655,202c-621,187-634,190-737,194
		C4929,4088,4876,4085,4836,4075z"/>
	<path class="st0" d="M1835,3601c-236-65-1110-332-1131-346c-50-32-51-95-2-127c26-17,1044-322,1127-338c77-14,247-12,333,4
		c40,8,255,71,478,141c223,69,413,128,423,131c16,5,17-11,17-239c0-236-1-245-20-250c-18-5-20-14-20-91c0-79,2-86,20-86
		c15,0,20-7,20-25c0-14-8-29-20-35c-22-12-27-49-8-68c18-18,123-15,142,4c21,21,20,41-4,61c-11,10-20,27-20,39c0,13,8,24,20,27
		c18,5,20,14,20,87s-2,82-20,87c-19,5-20,14-20,263v258l33,12c51,21,77,49,77,85c0,20-8,39-22,52c-16,15-203,76-593,194
		c-538,162-575,172-665,176C1929,3619,1888,3615,1835,3601z"/>
	<path class="st0" d="M4010,2908c0-198,3-256,15-285c8-19,15-54,15-77c0-22,9-61,20-85s20-65,20-92c0-38,4-51,20-59
		c11-6,20-20,20-32c0-19-2-20-17-6c-48,41-119,22-149-40c-27-55-25-195,3-288c30-94,71-150,123-165c31-9,42-19,46-38
		c36-163,159-371,309-525c164-169,338-246,550-246c286,0,517,142,707,435c70,108,117,224,125,311c6,60,7,64,31,64
		c37,0,105,75,133,147c18,47,23,78,23,163c1,91-2,111-22,147c-14,27-31,45-47,49c-30,7-32,20-6,33c26,15,45,100,38,171
		c-5,47-2,68,15,106c20,46,20,57,13,298c-4,138-8,253-10,255c-2,1-186-49-408-113c-615-178-591-178-1179,2l-388,119V2908z
		 M4359,2425c181-51,487-95,663-95c119,0,363,30,530,66c67,15,129,27,137,28c7,0,22-15,32-34c19-33,20-54,17-360l-4-325l-33-87
		c-81-215-267-419-465-508c-70-32-192-60-261-60c-303,0-635,272-751,614c-23,68-24,79-24,406c0,329,1,338,21,364c13,17,27,25,37,21
		C4266,2452,4312,2439,4359,2425z M4077,2215c33-23,43-76,43-227c0-120-2-138-16-138c-9,0-29,13-44,30c-40,42-63,137-59,237
		C4006,2222,4027,2250,4077,2215z M5927,2193c20-48,13-190-11-248c-19-45-63-95-83-95c-19,0-18,278,1,324
		C5861,2238,5904,2246,5927,2193z"/>
	<path class="st0" d="M4472,2245c-58-18-108-58-133-108l-21-41l23,17c105,77,224,90,363,42c63-22,83-25,102-16c51,23,22,69-65,102
		C4680,2264,4539,2266,4472,2245z"/>
	<path class="st0" d="M5195,2246c-78-24-112-56-99-90c11-27,43-28,120-1c132,46,249,36,342-27c44-31,49-30,31,5
		c-23,44-74,87-126,107C5400,2263,5260,2267,5195,2246z"/>
	<path class="st0" d="M4550,2094c-14-3-44-9-67-16c-36-9-43-15-43-36c0-22,3-24,33-19c17,4,42,9,55,13c19,6,22,3,22-23
		c0-37,27-63,67-63c34,0,63,27,63,58c0,20,4,22,41,16c39-7,41-6,37,17c-2,17-13,27-38,35C4678,2090,4585,2099,4550,2094z"/>
	<path class="st0" d="M5230,2086c-34-9-46-17-48-34c-3-19,3-24,28-24c3,0,15,3,28,7c19,6,22,3,22-23c0-37,28-62,68-62
		c35,0,62,30,62,69c0,21,3,23,33,17c70-13,72-12,72,14c0,21-7,27-45,37C5392,2102,5288,2101,5230,2086z"/>
	<path class="st0" d="M4880,1611c-7-15-6-24,7-36c38-39,101-45,151-15c35,22,40,41,17,60c-13,11-22,9-51-6c-33-18-36-18-65-1
		C4900,1635,4893,1634,4880,1611z"/>
	<path class="st0" d="M4773,1414c-11-28,11-48,78-72c51-18,79-22,135-18c93,6,174,39,174,72c0,35-15,37-78,14c-75-29-164-29-228-1
		C4798,1434,4781,1435,4773,1414z"/>
	<path class="st0" d="M1133,2558c4-245,14-333,41-385c9-18,16-51,16-75c0-32,5-46,20-56c11-7,20-19,20-28c0-15-2-15-25,0
		c-55,36-112,11-135-60c-18-53-7-195,19-266c25-64,78-118,116-118c20,0,25-5,25-25c0-38,43-146,91-230c88-154,214-290,342-368
		c188-115,434-118,642-9c183,96,384,365,417,558c11,70,13,72,51,89c74,33,122,144,120,281c-1,86-29,150-69,160c-27,7-27,7-6,23
		c33,26,55,144,33,179c-5,8,0,30,13,55c20,40,21,55,18,272c-2,127-5,231-7,233c-1,1-157-42-346-97c-390-112-429-121-548-121
		c-115,0-163,12-528,124c-172,53-315,96-318,96S1131,2685,1133,2558z M1470,2138c240-65,514-89,730-64c132,16,364,57,402,71
		c10,4,22-2,32-17c24-34,24-578,0-659c-57-190-223-388-399-475c-77-38-182-64-261-64c-69,0-193,33-264,71c-176,94-348,306-404,501
		c-14,47-16,101-14,346c3,270,4,291,22,311c13,14,26,19,35,15S1412,2154,1470,2138z M1196,1949c16-18,19-40,22-165
		c4-160-2-173-52-114c-33,40-49,99-50,185C1116,1960,1150,2000,1196,1949z M2821,1949c14-27,14-143-1-200c-14-51-54-109-76-109
		c-13,0-15,20-12,144c3,125,6,147,22,165C2778,1976,2806,1976,2821,1949z"/>
	<path class="st0" d="M1585,2000c-84-18-142-56-172-113l-16-31l29,19c98,65,198,76,306,35c32-12,70-20,85-18c34,4,42,32,18,58
		C1800,1988,1662,2016,1585,2000z"/>
	<path class="st0" d="M2222,1999c-96-16-159-62-131-95c15-18,51-18,95,1c101,42,214,36,297-15c26-16,47-26,47-22s-11,24-25,44
		C2458,1981,2337,2018,2222,1999z"/>
	<path class="st0" d="M2210,1847c-34-9-45-17-45-32c0-17,6-19,33-17c28,3,32,1,32-22c0-31,40-61,70-51c27,8,54,50,46,71
		c-5,13-1,14,27,8c57-13,72-11,72,11c0,24-62,43-140,43C2278,1858,2235,1853,2210,1847z"/>
	<path class="st0" d="M1532,1835c-47-20-36-41,19-38c41,3,45,1,59-29c8-17,23-36,33-42c25-16,71,12,75,46c3,24,6,26,38,21
		c47-8,47,23-1,43C1710,1854,1576,1854,1532,1835z"/>
	<path class="st0" d="M1894,1425c-8-21,11-42,51-55c26-9,41-8,69,4c67,28,59,79-8,55c-29-11-41-11-56-1
		C1923,1444,1901,1443,1894,1425z"/>
	<path class="st0" d="M1812,1262c-7-2-12-13-12-23c0-58,205-87,303-42c48,22,58,41,33,62c-10,9-24,6-57-9c-56-25-143-26-207-2
		C1846,1258,1819,1265,1812,1262z"/>
	<path class="st0" d="M4280,1010c-46-40-171-104-250-128c-76-23-195-43-435-72c-308-37-434-87-570-224c-88-89-127-149-185-284
		c-32-73-90-257-90-284c0-5,999-8,2220-8c1382,0,2220,4,2220,9c0,6-16,63-36,128c-64,213-146,358-259,462c-134,121-256,163-594,201
		c-228,26-325,44-424,81c-77,28-179,83-241,132c-21,16-30,18-33,9c-13-35-90-122-145-164c-184-140-488-179-748-96
		c-136,43-271,132-342,226c-18,23-37,42-43,42C4320,1039,4299,1026,4280,1010z"/>
	<path class="st0" d="M1361,890c-49-42-165-95-258-119c-45-12-162-30-260-42c-239-28-341-51-439-99C232,546,112,377,35,111
		C21,64,10,22,10,18s551-8,1225-8h1225l6,28c63,286,150,501,267,664l56,78l-72,33c-40,19-93,50-120,70c-26,21-51,37-55,37
		s-16-16-26-35c-28-52-114-129-184-164c-106-54-201-75-337-74c-217,1-373,61-510,195c-44,43-82,78-85,78C1397,919,1380,906,1361,890
		z"/>
</g>
</svg>
