<svg id="Layer_2" data-name="Layer 2" xmlns="http://www.w3.org/2000/svg" viewBox="0 0 998.58 409.85"><defs><style>.cls-1{fill:#a51c30;}</style></defs><path class="cls-1" d="M576.47,409.57c1.4-12,2.09-24.14,4.38-36,3.26-16.83,8.09-33.62,20.86-45.83,8.41-8,18.44-14.72,28.63-20.42,16-8.94,32.78-16.41,49.09-24.77,8.58-4.41,16.89-9.36,25.27-14.15,2.82-1.61,4.86-1.17,6.39,1.7,7.59,14.25,19.23,24.19,33.78,30.64,7.44,3.29,15.18,6.33,23.09,8a122.45,122.45,0,0,0,25,2.1c8.5,0,17.28-.06,25.45-2.08,22.26-5.52,40.72-16.71,50.84-38.51a6.79,6.79,0,0,0,.19-1.47c.09-.46.25-.92.65-2.33,4.18,2.15,8.22,4,12,6.25,18.7,11,38.48,19.81,58.39,28.42,16,6.94,31.56,15.14,42.13,29.8,6.29,8.72,10.24,18.54,13.58,28.89,3.76,11.65,2,23.21,2.64,34.81.26,5,.16,9.95.23,14.93Z" transform="translate(-0.47 -0.15)"/><path class="cls-1" d="M.47,410c1.4-12,2.09-24.15,4.38-36,3.26-16.82,8.09-33.62,20.86-45.82,8.41-8,18.44-14.72,28.63-20.42,16-8.95,32.78-16.41,49.09-24.78,8.58-4.4,16.89-9.35,25.27-14.14,2.82-1.62,4.86-1.17,6.39,1.7,7.59,14.24,19.23,24.19,33.78,30.64,7.44,3.29,15.18,6.32,23.09,8a122.45,122.45,0,0,0,25,2.11c8.5,0,17.28-.06,25.45-2.09,22.26-5.51,40.72-16.7,50.84-38.5a6.87,6.87,0,0,0,.19-1.47c.09-.47.25-.92.65-2.34,4.18,2.16,8.22,4,12,6.25,18.7,11,38.48,19.82,58.39,28.42,16,6.94,31.56,15.15,42.13,29.81,6.29,8.71,10.24,18.54,13.58,28.89,3.76,11.65,2,23.21,2.64,34.8.26,5,.16,10,.23,14.94Z" transform="translate(-0.47 -0.15)"/><path class="cls-1" d="M849.21,252.3a57.12,57.12,0,0,1,2.72,7.87c1.56,7.74-4.3,12.14-8.71,16.65-7.4,7.56-17.14,11.66-27.08,14.63-11.5,3.44-23.63,3.24-35.31,1.86-11.34-1.34-22.63-4.86-32.28-11.26-7.31-4.85-13.69-11.12-20.31-17-4.08-3.6,1-6.75,1-10.23,0-1.63,1.42-3.24,2.32-5.11a68.25,68.25,0,0,1-19.52-26c-1.58-3.61-1.63-7.85-2.61-11.75-.34-1.34-1.29-3.52-2.11-3.6-11.59-1.06-15.6-9.91-19.4-18.75a87.85,87.85,0,0,1-4.84-14.73,62.92,62.92,0,0,1-1.47-13.14c-.08-4.23,4.39-7.71,10.62-9-5.25-12.24-2.51-25.12-2.51-37.67,0-14.68-6.18-24.35-19.46-29.93-1.19-.5-2.23-1.38-3.45-1.76a31.79,31.79,0,0,0-4.79-.63c.77-2,1-4.1,2.12-5.33,9.56-10.43,18.94-21.07,29.06-31C710,30.2,728.49,16.69,750.34,7.34c14.93-6.39,30-7.58,45.36-6.2,6.3.57,12.35,5,18.32,8a81.08,81.08,0,0,1,26.42,22.15,4.73,4.73,0,0,0,3,1.32C866,35,882.66,46.93,894.9,65.2c6.35,9.46,9,20.51,10.12,31.91,1.32,13.14-.5,25.64-6.68,37.32-4,7.5-8.4,14.76-12.38,21.71,2.43,2,5.85,3.91,8,6.77,4.93,6.39,3.82,13.59,1.09,20.53a156.58,156.58,0,0,1-8.38,19c-1.36,2.45-4.64,4.46-7.46,5.37-7,2.26-7.44,3.41-8.53,10.74a38.83,38.83,0,0,1-6.09,15.56C860.29,240.52,854.6,246.05,849.21,252.3Z" transform="translate(-0.47 -0.15)"/><path class="cls-1" d="M152.84,249.86c-8.34-8.05-16.19-16-18.78-27.57-.7-3.12-.92-6.41-2.11-9.33-.79-2-2.87-4.79-4.41-4.81-6.62-.07-10.3-4.79-13-9.06-3.81-6.17-6.12-13.37-8.34-20.36-1.4-4.39-1.48-9.2-2.11-13.83-1-7.81,1.93-10.48,9.38-12.08-.47-2.26-1.3-4.49-1.33-6.73-.15-9.64-.25-19.28,0-28.92.34-13.93-4.93-24.55-17.64-30.91C91.4,84.7,88,83.72,83.88,82.15c.66-1.37,1.11-3.26,2.26-4.51,10.29-11.08,20.55-22.19,31.13-33A161.32,161.32,0,0,1,159,13.48c8.08-4.14,17.4-5.85,25.5-10,10.39-5.27,21.2-3,31.5-2.23,7.67.56,15.69,4.85,22.3,9.33,8.22,5.58,15.12,13.1,22.69,19.66a9,9,0,0,0,4.57,2.32C280,33.93,292.1,40.44,303,49.52a63.59,63.59,0,0,1,20.71,31.82c2,7.13,2.35,14.82,2.76,22.29,1.11,20.31-6.32,37.41-20.46,51.79-.19.19-.16.61-.33,1.39,5.61.45,10.53,3.33,11.53,8.57a40,40,0,0,1-.56,17.75c-2,7.24-6,14-9.18,20.84-1.37,2.92-8.94,5.8-13.58,5.21,0,18.28-10.62,30.8-23,42.77,1.1,3,2.42,6.47,3.53,10a3.83,3.83,0,0,1-.37,2.85c-6.32,10.32-14.72,18.18-26.07,23-13.2,5.59-27,7-40.95,5.8-14.64-1.29-28.58-5.55-40.73-14.15-5.16-3.65-9.72-8.17-14.5-12.35-3.45-3-3.82-6.31-1.31-10.29C151.75,254.75,152.08,252.18,152.84,249.86Z" transform="translate(-0.47 -0.15)"/><path class="cls-1" d="M424.81,243.78h-13.5c-15.47,0-30.95-.09-46.42.06-4.31,0-6.17-1.12-6.11-5.88.24-19.61.11-39.21.1-58.82,0-7.79,0-7.79,8.09-7.79h57.84c0-10.75.4-21-.15-31.24a14,14,0,0,1,6.61-13.19c5.4-3.68,11.42-3,16.09,1,8.41,7.35,16.49,15.13,24.22,23.19,10,10.43,19.47,21.33,29.22,32,4.64,5.08,9.63,9.86,14.05,15.13,5.78,6.87,4.48,12.73-1.7,19.6-14.27,15.86-28.5,31.75-43,47.37a223.88,223.88,0,0,1-21.07,20.38c-8.84,7.28-17.43,5.42-23.31-4.53a9.65,9.65,0,0,1-.9-4.66C424.78,265.82,424.81,255.2,424.81,243.78Z" transform="translate(-0.47 -0.15)"/><path class="cls-1" d="M574.27,50.63h65.64V122H574.28c0,11.33.2,22.24-.14,33.13a15.68,15.68,0,0,1-3,8.38c-4.43,5.94-9.32,6.34-16.37,3.67-7.94-3-12.88-9.31-18.37-15-6.24-6.52-12.12-13.4-18.22-20.06-11.3-12.32-22.7-24.54-33.94-36.91-5-5.5-4.77-12.6.65-18.75,5.81-6.59,11.88-13,17.86-19.38,13.51-14.52,26.83-29.23,40.68-43.42a42.09,42.09,0,0,1,14.24-9.56c7.17-2.84,17,6.22,16.76,12.39C574,27.57,574.27,38.7,574.27,50.63Z" transform="translate(-0.47 -0.15)"/></svg>