<?xml version="1.0" encoding="utf-8"?>
<!-- Generator: Adobe Illustrator 26.0.3, SVG Export Plug-In . SVG Version: 6.00 Build 0)  -->
<svg version="1.1"
	 id="Layer_1" shape-rendering="geometricPrecision" text-rendering="geometricPrecision" image-rendering="optimizeQuality"
	 xmlns="http://www.w3.org/2000/svg" xmlns:xlink="http://www.w3.org/1999/xlink" x="0px" y="0px" viewBox="0 0 512 448.2"
	 style="enable-background:new 0 0 512 448.2;" xml:space="preserve">
<style type="text/css">
	.st0{fill:#A51C30;}
</style>
<path class="st0" d="M118.7,353.3c-0.3-2.9,1.8-5.5,4.7-5.8c2.9-0.3,5.5,1.8,5.8,4.7c1.7,16.9,1.6,32.7-0.2,47.6
	c-1.8,14.9-5.3,29-10.4,42.3c-1,2.7-4,4.1-6.8,3.1c-2.7-1-4.1-4.1-3.1-6.8c4.7-12.5,8-25.7,9.7-39.9c0.4-3.1,0.7-6.3,0.9-9.5
	c-48.1-12.7-79-39.3-95.5-71.4c-4.2,0.2-8.4-0.7-12-2.7c-5-2.7-9-7.3-10.8-13l-0.2-0.7c-1.6-5.8-0.8-11.8,1.9-16.8
	c1.9-3.5,4.6-6.4,8.1-8.6C6.5,246,11.9,214.6,25.2,187l1.4-2.9l-0.2-4.6l-4.3-88.9l1.7-1.7c26.2-26.2,53.5-46,81.9-60.4
	c28.4-14.4,57.8-23.2,88-27.1l5.7-0.8l4.3,112.1c7.8,2.5,15.8,5.7,24,9.5l0.5-121.3l4.9-0.3c26.6-1.5,53.2-0.2,79.8,4.4
	c26.6,4.6,53.2,12.5,79.8,24l3.2,1.4v209.4l-7.8-4.2c-16.6-8.9-33.8-16.7-51.8-23.5c-15.7-5.9-31.9-11-48.5-15.3l10.2,34.2
	c1.5,5.1,0.6,9.4-1.5,13.2l14.2,15.3c4.3,3.7,7,7.7,8.2,11.7c0.9,2.9,1.1,5.7,0.7,8.3c-0.4,2.6-1.5,4.9-3.1,6.9l-0.3,0.4
	c-1.9,2.2-4.3,3.9-7.4,4.9l-11.3,4.1l0.5,1.9c2.1,7.4,4.2,14.6,5.7,22.4l0.1,0.7c1.1,4.2,2,8.4,2.6,12.6c0.6,3.6,1,7.2,1.3,10.7
	c5,5.5,8.2,10.7,10,15.4l0.1,0.4c2.5,6.9,1.9,13-0.9,18.3c-2.7,5.1-7.5,9.3-13.9,12.6c-8.3,4.3-19.3,7.1-31.7,8.5
	c-9.3,1-19.8,1.6-30.2,1.2c0.1,0.5,0.1,0.9,0.1,1.4c-0.4,5.1-0.7,15.1-0.4,24.2c0.2,6.4,0.7,12.3,1.5,15.5c0.8,2.8-0.9,5.7-3.7,6.4
	c-2.8,0.7-5.7-0.9-6.4-3.7c-1.1-4-1.6-10.8-1.9-18c-0.3-9.6,0-20.1,0.4-25.3c0-0.5,0.1-0.9,0.3-1.3c-8.9-1-17.5-2.8-24.9-5.7
	c-10-4-15.9-12.2-21-19.1l-3.2-4.4c-4.5-6.1-12.5-16.8-17.6-18.7c-2.7-1-4.1-4.1-3-6.8c1-2.7,4.1-4.1,6.8-3c8,3,17.1,15.3,22.3,22.3
	l3.3,4.5c4.2,5.8,9.2,12.7,16.4,15.6c7.3,3,16.4,4.6,25.8,5.4c11.6,0.9,23.8,0.4,34.4-0.8c11.1-1.3,20.9-3.7,28-7.4
	c4.4-2.3,7.7-5,9.4-8.1c1.4-2.7,1.7-6,0.3-9.9l-0.1-0.3c-1.4-3.8-4.3-8.2-8.9-13c-0.9-0.9-1.5-2.1-1.6-3.4c-0.3-4-0.7-7.8-1.4-11.6
	l-0.6-3.2c-2.4,1.7-5,3.1-7.5,4.2c-5.3,2.2-10.9,3-16.7,2.2c-2.9-0.4-4.9-3-4.6-5.9c0.3-2.9,3-4.9,5.9-4.6c4,0.5,7.8,0,11.4-1.5
	c3.1-1.3,6.1-3.3,9-5.9c-1.4-6.8-3.3-13.2-5.1-19.7l-0.3-1.1l-7.6,2.8l-3.6-9.9c9.5-3.5,19.6-7.5,29.1-10.6c1.1-0.4,2-1,2.6-1.7
	l0.2-0.2c0.4-0.6,0.8-1.3,0.9-2.1c0.2-1,0.1-2.2-0.3-3.4c-0.7-2.2-2.4-4.7-5.2-7.1l-13.9-15c-1.8,1.7-3.6,3.3-5.5,4.9
	c-2.1,1.8-4.2,3.6-5.8,5.3c-2.4,2.5-3.9,6.5-5.2,10.3c-2.5,6.9-4.8,13.3-12.5,15.6l-49.6,14.9l-0.1,0l-0.1,0l-0.5,0.1L175.8,314
	c-11.1,3.3-22.5,1.8-32-3.3c-8.8-4.7-15.9-12.5-19.6-22.5l-89.8,26.9c15.2,28.1,42.9,51.5,85.3,63.2
	C119.9,370.3,119.6,361.9,118.7,353.3L118.7,353.3z M334.9,143.4l-13.2-15.3l-2.8,16.5c-0.3,2.3-3.3,2.6-5,0.5l-20.1-27.9L272.7,132
	v9.9c25.8,3.2,51,11.9,75.9,19.1v-29.3L336,143.6c-0.1,0.2-0.4,0.3-0.6,0.2C335.2,143.7,335,143.6,334.9,143.4L334.9,143.4z
	 M335.3,136.1l13.2-13.1V98.5c-25.3-7.2-50.6-12.2-75.8-15.4v41.2c6.4-4.5,13-9.5,19.5-13.7c0.6-0.4,1.3-0.4,2-0.3
	c0.7,0.2,1.4,0.6,1.9,1.3l0,0c0,0,0.1,0.1,0.1,0.1l18,24.9l2.7-15.9c0.1-0.7,0.6-1.3,1.1-1.6c0.6-0.3,1.3-0.3,2.1-0.1l0.1,0
	c0.3,0.1,0.5,0.2,0.8,0.4c0.3,0.2,0.5,0.4,0.7,0.7L335.3,136.1L335.3,136.1z M325,98.5c3.1,1.9,5.2,5.4,5.2,8.8
	c0,4.6-3.8,7.6-8.4,6.7c-2.2-0.4-4.3-1.8-5.9-3.7c-1.6-1.9-2.5-4.2-2.5-6.4c0-1.1,0.2-2.2,0.6-3.1c0.8-1.9,2.5-3.2,4.5-3.6
	C320.6,96.8,322.9,97.3,325,98.5L325,98.5z M320.4,102c-1.8,0.4-2.7,2.3-1.9,4.2c0.4,1,1,1.8,1.9,2.3c1.8,1.1,3.9,0.7,4.7-1
	C326.3,104.9,323.4,101.5,320.4,102z M271,76.9c27.5,2.8,54.3,8,80.3,16.4c1.5,0.3,2.8,1.9,2.8,3.4v68.2c0,1.5-1.2,2.6-2.8,2.3
	c-27-7.6-54.1-16.6-81.2-20.2c2.9,2.1,5.8,4.2,8.7,6.4l0.9,0.8c1.9,2.2,1.6,5.5-0.6,7.4l-10.1,8.5c2.3,0.1,4.6,0.8,6.6,1.9
	c3.5,1.9,6.4,5.2,7.6,9.4l1.1,3.8c19.2,4.7,37.8,10.4,55.7,17.2c15.5,5.8,30.6,12.5,45.3,20V37.3c-24.7-10.4-49.5-17.6-74.2-21.9
	c-24.2-4.2-48.3-5.6-72.5-4.5l-0.4,116.5c9.7,5.1,19.5,11,29.6,18c-0.3-0.5-0.5-1.1-0.5-1.7V79.1C267.2,76.6,269.2,76.8,271,76.9
	L271,76.9z M264.4,43.6c16.5,0.5,32.9,2.1,49.2,5c16.3,2.8,32.7,7,49.2,12.5l-3.3,10c-15.8-5.2-31.7-9.2-47.7-12
	c-16-2.8-31.9-4.4-47.7-4.8L264.4,43.6z M444.5,139.2c9.4,5.9,17.8,12.5,25.1,19.6c7.5,7.3,14,15.2,19.4,23.8l-8.8,5.7
	c-5-7.9-11-15.2-17.9-21.9c-6.8-6.7-14.6-12.8-23.4-18.3L444.5,139.2L444.5,139.2z M444.5,103.7c9.4,5.9,17.7,12.4,25.1,19.6
	c7.5,7.3,14,15.2,19.4,23.8l-8.8,5.7c-5-7.9-11-15.2-17.9-21.9c-6.8-6.7-14.6-12.8-23.4-18.3L444.5,103.7L444.5,103.7z M427.6,50.4
	c28.3,13.8,49.1,32.6,63.1,55.5c14.4,23.7,21.3,51.7,21.3,83.2v171.1L420.1,246V46.7L427.6,50.4L427.6,50.4z M481.7,111.3
	c-11.6-19.1-28.5-35.1-51.1-47.5v178.6l70.9,88V189.1C501.5,159.4,495.1,133.3,481.7,111.3z M52.5,106c19.2-15.5,39.1-28,59.4-37.6
	c20.3-9.7,41.2-16.5,62.5-20.8l2.1,10.3C156,62,136,68.6,116.4,77.9c-19.6,9.3-38.7,21.3-57.3,36.3L52.5,106z M44.5,156.6
	c12-14.9,26.9-27.6,44.2-36.7c28.9-15.2,64.3-20.6,104.3-10.2l-3.7-97C162.3,16.8,135.9,25,110.4,38C83.6,51.5,57.7,70.2,32.8,94.8
	l3.4,70.9C39,162.5,41.8,159.5,44.5,156.6z M192.4,120.4c-36.6-7.8-64.8-5.4-88.8,4.9c-18.7,8.1-35.1,21.1-51.1,38.1
	c-7,8.7-13,18.2-17.8,28.2c-12.1,25-17.2,53.3-13.8,80.5l90.4-27.1l-3.4-11.5c-1.1-4-0.5-8.2,1.3-11.6c1.9-3.4,5-6.2,9-7.5l0.7-0.2
	l34.7-10.4l0.2-0.1l0.1,0l93.2-27.9c0.2-0.6,0.6-1.1,1-1.6l19.2-16.3C240.8,138.8,215.8,126.7,192.4,120.4L192.4,120.4z
	 M201.6,271.5c-3.7,1.1-5.9,5.1-4.8,8.8c1.1,3.8,5.1,5.9,8.8,4.8c3.7-1.1,5.9-5,4.8-8.8c0,0,0,0,0,0
	C209.3,272.6,205.3,270.4,201.6,271.5z M233.7,261.9c-3.7,1.1-5.9,5.1-4.7,8.8c1.1,3.7,5,5.9,8.8,4.8c0,0,0,0,0,0
	c3.7-1.1,5.9-5.1,4.7-8.8C241.4,262.9,237.4,260.8,233.7,261.9L233.7,261.9L233.7,261.9z M156.1,212.5c-1.6,0.5-3,1.7-3.8,3.2
	c-0.8,1.6-1,3.4-0.5,5.1l15.6,52c2.6,8.7,8.5,15.5,15.9,19.5c7.3,3.9,16.1,5.2,24.6,2.7l0.1,0l0.4-0.1l0.1,0l49.7-14.9
	c3.3-1,4.9-5.4,6.5-10c1.7-4.7,3.4-9.6,7.3-13.5c1.9-2,4.1-3.9,6.4-5.8c6.1-5.2,12.6-10.9,10.9-16.8L274.4,184
	c-0.5-1.7-1.7-3.1-3.2-3.9c-1.6-0.8-3.4-1-5.1-0.5l-109.6,32.8l-0.1,0l-0.1,0L156.1,212.5L156.1,212.5L156.1,212.5z M183.4,302.3
	c-1.5-0.6-3-1.3-4.4-2.1c-9.5-5.1-17-13.8-20.4-24.9l-15.6-51.9c-0.7-2.3-0.8-4.6-0.5-6.8L121,223c-1.7,0.5-3,1.7-3.8,3.2
	c-0.8,1.6-1,3.4-0.5,5.1l4.6,15.4l0,0.1l10.3,34.5l0,0.1l0.5,1.8c2.6,8.7,8.5,15.5,15.9,19.5s16.4,5.2,25.1,2.6L183.4,302.3z
	 M113.9,253.7l-95.2,28.5c-3.5,1.1-6.3,3.5-7.9,6.5c-1.6,3-2.1,6.7-1.1,10.2l0,0.1c1.1,3.5,3.5,6.3,6.5,7.9c3,1.6,6.7,2.1,10.2,1.1
	l95.1-28.5L113.9,253.7L113.9,253.7z"/>
</svg>
