<svg id="Layer_1" data-name="Layer 1" xmlns="http://www.w3.org/2000/svg" viewBox="0 0 358.41 215.72"><defs><style>.cls-1{fill:#a51c30;}</style></defs><path class="cls-1" d="M40.73,217.55c-9.87-10-19.7-20.12-29.63-30.09-3.27-3.29-6.79-6.33-10.59-9.85L69.07,109.4,1.47,42,41.66,1.83,149.51,109.49c-.86.9-2,2.2-3.29,3.44l-101.14,101c-1.17,1.16-2.24,2.41-3.35,3.63Z" transform="translate(-0.51 -1.83)"/><path class="cls-1" d="M145.44,217.55q-14.81-15.06-29.63-30.1c-3.26-3.29-6.67-6.44-10.38-10l68.32-68.06Q139.37,75.06,106.18,42L146.37,1.83,254.22,109.49c-.86.9-2,2.2-3.29,3.44q-50.56,50.51-101.14,101c-1.17,1.17-2.24,2.42-3.36,3.64Z" transform="translate(-0.51 -1.83)"/><path class="cls-1" d="M250.15,217.55c-9.87-10-19.71-20.12-29.63-30.09-3.27-3.29-6.79-6.33-10.59-9.85l68.56-68.21L210.89,42,251.08,1.83,358.93,109.49c-.86.89-2,2.2-3.29,3.44l-101.14,101c-1.17,1.17-2.24,2.42-3.36,3.64Z" transform="translate(-0.51 -1.83)"/></svg>