<?xml version="1.0" encoding="utf-8"?>
<!-- Generator: Adobe Illustrator 26.0.3, SVG Export Plug-In . SVG Version: 6.00 Build 0)  -->
<svg version="1.1" id="Layer_1" xmlns="http://www.w3.org/2000/svg" xmlns:xlink="http://www.w3.org/1999/xlink" x="0px" y="0px"
	 viewBox="0 0 93.6 122.9" style="enable-background:new 0 0 93.6 122.9;" xml:space="preserve">
<style type="text/css">
	.st0{fill-rule:evenodd;clip-rule:evenodd;fill:#A51C30;}
</style>
<path class="st0" d="M5.5,90.8h35.4c3,0,5.5,2.5,5.5,5.5v21c0,3-2.5,5.5-5.5,5.5H5.5c-3,0-5.5-2.5-5.5-5.5v-21
	C0,93.3,2.5,90.8,5.5,90.8L5.5,90.8z M91.3,16.2c0.7-0.5,1.7-0.2,2.1,0.5s0.2,1.7-0.5,2.1c-0.1,0-0.1,0.1-0.2,0.1l-2.6,1.4l1.4,1
	c0.7,0.5,0.9,1.4,0.4,2.1c-0.2,0.3-0.5,0.5-0.8,0.6l-5.8,2.2c-0.8,0.3-1.7-0.2-1.9-1c-0.2-0.8,0.1-1.6,0.9-1.9l3.2-1.2l-1-0.7
	c-0.2-0.1-0.4-0.3-0.5-0.6c-0.4-0.7-0.1-1.7,0.6-2.1c0,0,0,0,0,0L91.3,16.2L91.3,16.2z M84,0.4c0.7-0.6,1.6-0.5,2.2,0.2
	s0.5,1.6-0.2,2.2l-4.7,3.9l3.2,1.5c0.8,0.3,1.1,1.2,0.8,2c-0.1,0.3-0.4,0.6-0.7,0.7l-8,4.8c-0.7,0.5-1.6,0.4-2.2-0.2
	c-0.5-0.7-0.4-1.6,0.2-2.2c0.1-0.1,0.2-0.2,0.3-0.2l5.6-3.4l-2.8-1.3c-0.2-0.1-0.4-0.2-0.5-0.4c-0.5-0.7-0.5-1.6,0.2-2.2
	c0,0,0,0,0,0L84,0.4z M27.7,14.3c-0.5-0.7-0.3-1.7,0.4-2.1c0.7-0.5,1.6-0.3,2.1,0.4l3,4.3c0.5,0.7,0.3,1.6-0.3,2.1
	c-0.2,0.1-0.4,0.2-0.7,0.3L31,19.4l2.3,2.5c0.6,0.6,0.5,1.6-0.1,2.2c-0.6,0.6-1.6,0.5-2.2-0.1l0,0l-4.2-4.5
	c-0.6-0.6-0.7-1.5-0.1-2.2c0.2-0.3,0.6-0.4,0.9-0.5l1.7-0.3L27.7,14.3L27.7,14.3z M38,3.2c-0.3-0.8,0-1.7,0.8-2s1.7,0,2,0.8l3.3,7.6
	c0.3,0.8,0,1.7-0.8,2c-0.2,0.1-0.5,0.2-0.7,0.1l-3-0.1l3.5,5.5c0.5,0.7,0.3,1.7-0.4,2.1c-0.7,0.5-1.7,0.3-2.1-0.4c0,0,0,0,0-0.1
	l-5-8c-0.2-0.3-0.2-0.6-0.2-0.9c0-0.8,0.7-1.5,1.6-1.5l3.5,0.1L38,3.2z M60,8.3c8,0,14.5,6.5,14.6,14.5c0,3.9-1.5,7.6-4.3,10.3
	c0.2,0,0.3,0,0.5,0c3.3-0.1,6.1,2.5,6.2,5.8c0,0.5,0,1-0.2,1.5l-2.6,7.9l-3.5,8.2c-2,5.8-4.4,12-12,8.2c-1.5-0.8-2.8-1.8-4-3
	L50,56.9L42.2,69c-0.5,0.8-0.9,1.8-1,2.8h14.4c3.9,0,7,3.1,7,7c1.3,12.7,4.3,21.7,5.8,34.5c0,7.7-13.5,10.9-14.7,2.3
	c-0.6-4.4-1.3-8.8-2.2-13.1c-0.6-3.3-1.4-6.7-2.3-10c-1.5-5.9,0.4-4.9-5.5-4.9c-5.1,0.4-10.2,0.7-15.3,0.6
	c-6.1-0.1-13.2,0.2-17.6-4.8c-4.6-5.2-3-9.7-0.1-14.9l18-32.7c3.1-5,9.8-6.6,14.8-3.5l4.5,2.8c4.7,2.9,5.7,5.7,5.7,8.6L60,50
	l5.1-12.3c0.1-0.5,0.3-1,0.6-1.5c-7.4,3.2-15.9-0.2-19.1-7.6s0.2-15.9,7.6-19.1C56.1,8.7,58,8.3,60,8.3z"/>
</svg>
