<?xml version="1.0" encoding="utf-8"?>
<!-- Generator: Adobe Illustrator 26.0.3, SVG Export Plug-In . SVG Version: 6.00 Build 0)  -->
<svg version="1.1" id="Layer_1" xmlns="http://www.w3.org/2000/svg" xmlns:xlink="http://www.w3.org/1999/xlink" x="0px" y="0px"
	 viewBox="0 0 122.9 122.9" style="enable-background:new 0 0 122.9 122.9;" xml:space="preserve">
<style type="text/css">
	.st0{fill-rule:evenodd;clip-rule:evenodd;fill:#A51C30;}
</style>
<path class="st0" d="M61.4,0c33.9,0,61.4,27.5,61.4,61.4s-27.5,61.4-61.4,61.4S0,95.4,0,61.4c0,0,0,0,0,0C0,27.5,27.5,0,61.4,0z
	 M70.4,50.3c-0.1-1.8-1-3.5-2.4-4.7c-0.7-0.5-1.4-0.9-2.3-1.2l-0.2,11.5l1.4,0.3c2.5,0.5,4.9,1.3,7.3,2.4c1.9,0.9,3.7,2.1,5.3,3.6
	c1.4,1.3,2.5,2.9,3.3,4.7c0.8,1.9,1.1,3.9,1.2,6c0.1,3.2-0.9,6.3-2.7,9c-1.9,2.6-4.5,4.6-7.6,5.8c-2.8,1.1-5.7,1.7-8.6,1.9l-0.1,5.6
	h-7l0.1-5.7c-2.8-0.2-5.6-0.9-8.3-1.9c-3.3-1.2-6.1-3.4-8-6.3c-2-3.2-3.1-7-3-10.8h12.8c0,1.6,0.5,3.1,1.4,4.5
	c0.9,1.2,2.1,2.2,3.5,2.7c0.5,0.2,1.1,0.4,1.7,0.5l0.2-12.3l-2.7-0.6c-4.2-0.8-8.1-2.6-11.4-5.4c-2.8-2.5-4.3-6.2-4.1-10
	c-0.1-3.2,0.9-6.4,2.8-9c2-2.7,4.7-4.7,7.7-6c2.6-1.1,5.3-1.8,8.1-2l0.1-5.6H66l-0.1,5.7c2.5,0.3,5,1,7.3,2c3,1.3,5.6,3.4,7.4,6.1
	c1.8,2.7,2.7,5.9,2.7,9.1L70.4,50.3z M58.7,44.3c-0.4,0.1-0.7,0.2-1.1,0.3c-1,0.4-2,1-2.7,1.9c-0.6,0.8-0.9,1.7-0.9,2.7
	c0,0.8,0.1,1.5,0.5,2.2c0.4,0.7,1,1.2,1.6,1.7c0.7,0.5,1.5,0.9,2.3,1.2L58.7,44.3L58.7,44.3z M65.3,78.4c0.4-0.1,0.7-0.2,1.1-0.3
	c1.1-0.4,2.2-1.1,2.9-2c0.7-0.9,1-1.9,1.1-3c0-1-0.4-1.9-1-2.7c-0.8-0.9-1.8-1.6-2.9-2c-0.3-0.1-0.7-0.3-1.1-0.4L65.3,78.4
	L65.3,78.4z M61.4,10.5c28.2,0,51,22.8,51,51s-22.8,51-51,51s-51-22.8-51-51S33.3,10.5,61.4,10.5z"/>
</svg>
