<?xml version="1.0" encoding="utf-8"?>
<!-- Generator: Adobe Illustrator 26.0.3, SVG Export Plug-In . SVG Version: 6.00 Build 0)  -->
<svg version="1.1"
	 id="Layer_1" shape-rendering="geometricPrecision" text-rendering="geometricPrecision" image-rendering="optimizeQuality"
	 xmlns="http://www.w3.org/2000/svg" xmlns:xlink="http://www.w3.org/1999/xlink" x="0px" y="0px" viewBox="0 0 390 511.8"
	 style="enable-background:new 0 0 390 511.8;" xml:space="preserve">
<style type="text/css">
	.st0{fill-rule:evenodd;clip-rule:evenodd;fill:#A51C30;}
</style>
<path class="st0" d="M25,197.9h16.9v-39.2c0-43.4,17.1-83,44.7-111.7C114.4,18,152.7,0,195,0c42.3,0,80.7,18,108.4,47
	c27.6,28.7,44.7,68.3,44.7,111.7v39.2H365c13.7,0,25,11.2,25,25v264c0,13.7-11.2,25-25,25H25c-13.8,0-25-11.2-25-25v-264
	C0,209.1,11.2,197.9,25,197.9z M174.5,371.8l-27,70.6h94.9l-25-71.6c15.9-8.1,26.7-24.7,26.7-43.7c0-27.2-22-49.2-49.2-49.2
	c-27.2,0-49.2,22-49.2,49.2C145.8,346.9,157.6,364,174.5,371.8L174.5,371.8z M89.2,197.9h211.6v-39.2c0-30.9-12-58.8-31.4-79
	c-19.1-20-45.5-32.4-74.4-32.4c-28.9,0-55.3,12.4-74.4,32.4c-19.4,20.2-31.4,48.1-31.4,79C89.2,158.7,89.2,197.9,89.2,197.9z"/>
</svg>
