<?xml version="1.0" encoding="utf-8"?>
<!-- Generator: Adobe Illustrator 26.0.3, SVG Export Plug-In . SVG Version: 6.00 Build 0)  -->
<svg version="1.1" id="Layer_1" xmlns="http://www.w3.org/2000/svg" xmlns:xlink="http://www.w3.org/1999/xlink" x="0px" y="0px"
	 viewBox="0 0 122.9 122.9" style="enable-background:new 0 0 122.9 122.9;" xml:space="preserve">
<style type="text/css">
	.st0{fill-rule:evenodd;clip-rule:evenodd;fill:#A51C30;}
</style>
<path class="st0" d="M61.4,0c33.9,0,61.5,27.5,61.5,61.4s-27.5,61.5-61.4,61.5C27.5,122.9,0,95.4,0,61.5C0,45.2,6.5,29.5,18,18
	C29.5,6.5,45.1,0,61.4,0z M76,32.6c6.5,0,11.8,5.3,11.8,11.8c0,6.5-5.3,11.8-11.8,11.8c-2.8,0-5.5-1-7.6-2.7L52.8,60
	c0.1,0.5,0.1,0.9,0.1,1.3l16.3,7.6c5.3-3.8,12.6-2.5,16.4,2.8s2.5,12.6-2.8,16.4c-5.3,3.8-12.6,2.5-16.4-2.8
	c-1.9-2.7-2.6-6.2-1.8-9.5L50,69.2c-7.1,8.3-20.8,3.3-20.8-7.7c0-6.5,5.3-11.8,11.8-11.8c3,0,5.8,1.1,8,3.1l15.4-6.4
	c-1-6.4,3.4-12.5,9.8-13.5C74.8,32.7,75.4,32.6,76,32.6z"/>
</svg>
