<?xml version="1.0" encoding="utf-8"?>
<!-- Generator: Adobe Illustrator 26.0.3, SVG Export Plug-In . SVG Version: 6.00 Build 0)  -->
<svg version="1.1" id="Layer_1" xmlns="http://www.w3.org/2000/svg" xmlns:xlink="http://www.w3.org/1999/xlink" x="0px" y="0px"
	 viewBox="0 0 122.9 122.9" style="enable-background:new 0 0 122.9 122.9;" xml:space="preserve">
<style type="text/css">
	.st0{fill-rule:evenodd;clip-rule:evenodd;fill:#A51C30;}
</style>
<g>
	<path class="st0" d="M61.4,0c33.9,0,61.4,27.5,61.4,61.4s-27.5,61.4-61.4,61.4S0,95.4,0,61.4S27.5,0,61.4,0L61.4,0z M38.4,61.4
		l-0.2,0.2L37,61V43.5c0-0.8,0.2-1.6,0.7-2.2l0,0c0.1-0.1,0.2-0.2,0.3-0.4c0.1-0.1,0.2-0.2,0.3-0.3l0,0c0.3-0.3,0.7-0.6,1.1-0.8l0,0
		l0.2-0.1l0,0c0.5-0.2,1-0.3,1.6-0.3l0,0h0l0,0c1.2,0,2.2,0.5,3,1.2c0.3,0.3,0.6,0.7,0.8,1.1l0,0l0.1,0.2l0,0c0.2,0.5,0.3,1,0.3,1.6
		v0v0v14.3v0.7l-0.7,0C43,58.6,41.3,59.1,40,60c-0.3,0.2-0.5,0.4-0.8,0.6C38.9,60.8,38.7,61,38.4,61.4L38.4,61.4L38.4,61.4
		L38.4,61.4L38.4,61.4z M74.6,73.3l0.7,0.3l0.3,0.2c0.1,0.1,0.1,0.1,0.2,0.2l0,0l0.1,0.1v0c0.1,0.1,0.2,0.1,0.3,0.1l0,0h0
		c0.1,0,0.2,0,0.3-0.1l0.1,0l0.1,0l0,0l0,0c0.3-0.2,0.7-0.5,1.2-0.9c0.5-0.4,1-0.8,1.5-1.3c1-0.9,2.2-2.1,2.6-2.6l0,0
		c1.4-1.4,2.9-2.1,4.2-2.2c0.3,0,0.5,0,0.8,0c0.2,0,0.5,0.1,0.7,0.2h0l0,0h0c0.5,0.2,0.9,0.4,1.3,0.7l0,0l0.2,0.1l0,0l0.2,0.2l0,0
		l0,0l0,0l0,0l0,0c0.3,0.3,0.6,0.8,0.8,1.2l0,0l0.1,0.2l0,0.1l0.1,0.2l0,0l0,0l0,0c0.3,1.4,0.1,3-1.1,4.7c-0.2,0.3-0.5,0.6-0.7,0.9
		c-0.3,0.3-0.6,0.6-0.9,0.9l0,0l-0.1,0l-0.1,0.1l0,0l0,0L73.4,91L73,91.5l0,0c-0.8,0.7-1.5,1.3-2.3,1.8c-0.9,0.6-1.8,1.1-2.8,1.5
		c-1,0.4-2,0.7-3.1,0.8c-1.1,0.2-2.2,0.3-3.4,0.3h-9.1c-3,0-5.8-0.9-8.2-2.4l0,0c-0.5-0.3-0.9-0.6-1.3-1s-0.8-0.7-1.2-1.1l0,0l0,0
		c-1.2-1.2-2.1-2.5-2.9-4c-0.1-0.3-0.3-0.6-0.4-0.9c-0.8-1.8-1.2-3.9-1.2-6l0,0v0v-12c0-1.1,0.2-2.2,0.6-3.1v0
		c0.1-0.2,0.2-0.4,0.2-0.6l0,0c0.1-0.2,0.2-0.4,0.3-0.5l0,0l0,0l0,0c0.3-0.6,0.8-1.1,1.2-1.5l0,0l0.3-0.2l0,0l0.3-0.2l0,0l0,0l0,0
		c0.6-0.5,1.3-0.9,2-1.2l0,0c0.2-0.1,0.3-0.1,0.4-0.2l0,0c0.9-0.3,1.9-0.5,2.9-0.5l0,0h0h0.4l0.2,0l0.2,0l0.1,0l0,0H56l0,0h0.1h0
		h0.1l0,0h9.9l0,0h0h0h0l0,0h0.7c1.4,0,2.8,0.4,4,1l0,0c0.2,0.1,0.5,0.3,0.7,0.4l0,0h0c0.2,0.1,0.4,0.3,0.6,0.5l0,0l0,0l0,0
		c1,0.8,1.9,1.9,2.4,3.2c0.1,0.3,0.2,0.5,0.3,0.8l0,0c0.1,0.3,0.2,0.5,0.2,0.8v0l0,0l0,0.1c0,0.1,0,0.1,0,0.1l0,0l0,0l0,0l0,0.1l0,0
		l0,0l0.1,0.2l0,0.4v0l0,0.2v0l0,0.3v0v0.1v0V71v0.9l-0.9-0.3c-1.4-0.5-2.8-0.8-4-0.9l0,0c-0.3,0-0.6-0.1-0.8-0.1
		c-0.3,0-0.5-0.1-0.8-0.1l-0.6,0c-1.6,0-3.1,0.2-4.5,0.7c-0.3,0.1-0.6,0.2-0.8,0.3c-0.3,0.1-0.5,0.2-0.8,0.4l-0.4,0.2
		c-1.3,0.8-2.3,1.8-3.1,3.1c-0.2,0.3-0.3,0.5-0.5,0.8c-0.1,0.3-0.3,0.5-0.4,0.8l0,0l0,0l0,0c-0.4,0.9-0.7,1.9-0.8,3.1
		c0,0.2-0.1,0.5-0.1,0.7c0,0.2,0,0.4,0,0.6l1.5,0c0-0.8,0.2-1.5,0.3-2.2l0,0c0-0.2,0.1-0.4,0.2-0.6l0,0c0-0.2,0.1-0.4,0.2-0.6l0,0
		l0.2-0.5l0,0c0.5-1.2,1.2-2.2,2.2-3.1c0.2-0.2,0.4-0.3,0.6-0.5c0.2-0.2,0.4-0.3,0.6-0.4l0,0l0,0l0,0c1-0.6,2.1-1,3.4-1.2
		c0.3,0,0.5-0.1,0.8-0.1c0.3,0,0.6,0,0.8-0.1h0h0.6h0c1.3,0,2.7,0.2,4.3,0.6l0,0c0.3,0.1,0.7,0.2,1,0.3C73.9,73,74.2,73.1,74.6,73.3
		L74.6,73.3L74.6,73.3L74.6,73.3z M46,60.2L46,60.2L46,60.2L46,60.2L46,60.2L46,60.2z M64.6,58.4h-7H57v-0.7v-28l0,0
		c0-1.1,0.5-2.2,1.2-3c0.3-0.3,0.7-0.6,1.1-0.8l0,0l0.2-0.1l0,0c0.5-0.2,1-0.3,1.6-0.3v0h0v0c1.2,0,2.2,0.5,2.9,1.2
		c0.3,0.3,0.6,0.7,0.8,1.1l0,0l0.1,0.2l0,0c0.2,0.5,0.3,1,0.3,1.6v0v0v28v0.7L64.6,58.4L64.6,58.4L64.6,58.4z M67.7,58.5l-0.1,0
		l-0.6,0v-0.6V36.5l0,0c0-1.2,0.5-2.2,1.2-3c0.3-0.3,0.7-0.6,1.1-0.8l0,0l0.2-0.1l0,0c0.5-0.2,1-0.3,1.6-0.3l0,0h0
		c0.8,0,1.6,0.2,2.2,0.7l0,0l0,0c0.1,0.1,0.2,0.2,0.4,0.3l0,0l0,0c0.1,0.1,0.2,0.2,0.3,0.3l0,0c0.3,0.3,0.6,0.7,0.8,1.1l0,0l0.1,0.2
		l0,0c0.2,0.5,0.3,1,0.3,1.6l0,0v0V61l-1.2,0.5L74,61.4c-1.2-1.2-2.7-2.1-4.3-2.5c-0.3-0.1-0.7-0.2-1-0.2
		C68.4,58.5,68.1,58.5,67.7,58.5L67.7,58.5L67.7,58.5z M54.6,58.4h-7h-0.7v-0.7V43.5l0,0v-7.1l0,0c0-0.8,0.2-1.6,0.7-2.2l0,0
		c0.1-0.1,0.2-0.3,0.3-0.4c0.1-0.1,0.2-0.2,0.3-0.3l0,0c0.3-0.3,0.7-0.6,1.1-0.8l0,0l0.2-0.1l0,0c0.5-0.2,1-0.3,1.6-0.3l0,0h0l0,0
		c1.2,0,2.2,0.5,3,1.2c0.3,0.3,0.6,0.7,0.8,1.1l0,0l0.1,0.2l0,0c0.2,0.5,0.3,1,0.3,1.6l0,0v0v21.4v0.7L54.6,58.4L54.6,58.4
		L54.6,58.4z"/>
</g>
</svg>
