<?xml version="1.0" encoding="utf-8"?>
<!-- Generator: Adobe Illustrator 26.0.3, SVG Export Plug-In . SVG Version: 6.00 Build 0)  -->
<svg version="1.1"
	 id="Layer_1" shape-rendering="geometricPrecision" text-rendering="geometricPrecision" image-rendering="optimizeQuality"
	 xmlns="http://www.w3.org/2000/svg" xmlns:xlink="http://www.w3.org/1999/xlink" x="0px" y="0px" viewBox="0 0 512 406.6"
	 style="enable-background:new 0 0 512 406.6;" xml:space="preserve">
<style type="text/css">
	.st0{fill-rule:evenodd;clip-rule:evenodd;fill:#A51C30;}
</style>
<path class="st0" d="M334.1,1.6c53.5,6.7,102.2,34.4,135.2,77c68.8,88.6,52.8,216.2-35.8,285c-0.1,0-0.1,0.1-0.2,0.2
	c-88.6,68.8-216.1,52.8-285-35.8c0-0.1-0.1-0.1-0.1-0.2c-8.9-11.5-16.6-23.9-22.8-36.9c12.8-0.4,25.4-2.2,37.8-5.4
	c4,7.1,8.6,13.9,13.6,20.3c56.7,72.8,161.7,85.9,234.5,29.1c72.8-56.7,85.8-161.7,29.1-234.5C400,48.8,333.2,25.5,269.4,40.8
	c-6.1-11.2-13.4-21.7-21.9-31.3c2.5-0.8,4.9-1.5,7.5-2.2c25.8-7.1,52.7-9,79.2-5.6L334.1,1.6L334.1,1.6z M0,129.2v-15.4
	C4,50.8,56.3,0.9,120.2,0.9h0.1c66.6,0,120.5,53.9,120.6,120.5c0,66.6-53.9,120.6-120.5,120.6C56.3,242,4,192.2,0,129.2z
	 M106.6,160.7h27.6v24.4h-27.6C106.6,185.2,106.6,160.7,106.6,160.7z M134.2,146.5h-27.6c-2.8-33.6-8.5-32.8-8.5-66.3
	c0-12.4,10-22.4,22.4-22.4s22.4,10,22.4,22.4C142.8,113.6,137,113,134.2,146.5z M297.6,104.5c1.2-9.9,10.2-16.9,20.1-15.6h0
	c9.8,1.3,16.7,10.3,15.5,20.1l-11.7,94.1l65.1,50.6c7.9,6.1,9.3,17.4,3.2,25.3c-2.9,3.8-7.2,6.2-12,6.8c-4.7,0.6-9.5-0.7-13.3-3.6
	l-72.8-56.6c-2.5-1.8-4.5-4.3-5.8-7.1c-1.4-3-1.9-6.4-1.5-9.7L297.6,104.5L297.6,104.5L297.6,104.5z"/>
</svg>
