<svg id="Layer_1" data-name="Layer 1" xmlns="http://www.w3.org/2000/svg" viewBox="0 0 382.27 287.87"><defs><style>.cls-1{fill:#fff;}</style></defs><path class="cls-1" d="M384,207.1v8.23a18.1,18.1,0,0,0-.89,3.55c-.37,6.84-.49,13.69-1.05,20.51a7.59,7.59,0,0,1-2.53,4.84c-3.89,3.1-8.07,5.84-12.24,8.57A310.31,310.31,0,0,1,288.47,290c-1.2.37-3.5.11-4-.7-6.63-9.9-13-19.95-19.76-30.4,11.86-4.94,22.78-9.49,33.12-16.28-2.13-1.7-3.85-2.92-5.39-4.34-2.08-1.93-4.06-2.21-6.68-.82a92.61,92.61,0,0,1-10.28,4.44,235,235,0,0,1-69.28,15.29,228,228,0,0,1-52.79-3A224.33,224.33,0,0,1,97.9,237.11c-1-.46-2.63-.8-3.43-.31-2.6,1.59-5,3.59-8.42,6.21l33.57,16.24c-6.51,10.07-12.9,20.12-19.54,30-.55.81-3,1.05-4.17.62-10.19-3.61-20.44-7.12-30.41-11.28A297,297,0,0,1,5.22,244.33c-1.24-.91-2.57-2.68-2.62-4.09-.46-14.3-.84-28.59-.91-42.89-.08-16.6,2.19-33,5.44-49.23C15.86,104.58,33.62,64.81,58.28,28a7.53,7.53,0,0,1,3-2.61,326.5,326.5,0,0,1,73.9-23c2-.37,3.19.08,4.11,2.06,2.41,5.2,5.13,10.26,7.57,15.44.88,1.87,1.84,2.76,4,2.12a20.38,20.38,0,0,1,4.08-.4c12.66-.89,25.32-2.53,38-2.46,13.53.08,27.06,1.68,40.56,2.88,2.37.21,3.36-.39,4.28-2.34,2.32-5,4.94-9.78,7.16-14.78,1.09-2.45,2.59-2.89,5-2.44a325.94,325.94,0,0,1,72.84,22.72,9.21,9.21,0,0,1,3.77,3.34c5.69,9.07,11.55,18.06,16.74,27.41,24.95,45,38.76,93,39.83,144.6A57,57,0,0,0,384,207.1ZM93.74,163.21c-.35,5,1.83,11.78,5.28,18.26,10.63,20,35.63,24.29,52.2,9,13.36-12.32,16.34-36.22,6.43-51.54-11.23-17.36-31.31-22.06-47.85-10.6C98.69,136,93.91,147.38,93.74,163.21Zm197.07-2.91c-.1-7.61-1.27-13.22-4.95-19.73-12.85-22.73-41.5-24.92-56.73-4.38a41.91,41.91,0,0,0,2.07,52.17A32.1,32.1,0,0,0,272.52,195C285.36,187.06,290.41,174.84,290.81,160.3Z" transform="translate(-1.69 -2.26)"/></svg>